<?xml version="1.0" standalone="no"?>
<!DOCTYPE svg PUBLIC "-//W3C//DTD SVG 20010904//EN"
 "http://www.w3.org/TR/2001/REC-SVG-20010904/DTD/svg10.dtd">
<svg version="1.0" xmlns="http://www.w3.org/2000/svg"
 width="1024.000000pt" height="1536.000000pt" viewBox="0 0 1024.000000 1536.000000"
 preserveAspectRatio="xMidYMid meet">

<g transform="translate(0.000000,1536.000000) scale(0.100000,-0.100000)"
fill="#000000" stroke="none">
<path d="M4915 14650 c-289 -20 -566 -95 -824 -224 -205 -102 -335 -199 -499
-371 -167 -175 -267 -329 -362 -555 -63 -153 -74 -189 -109 -365 -54 -270 -64
-493 -36 -805 36 -414 125 -737 304 -1115 182 -383 473 -785 786 -1084 l96
-91 -138 0 c-76 0 -199 5 -273 10 -518 40 -773 150 -950 410 -80 117 -152 291
-190 453 -13 53 -26 97 -29 97 -12 0 -175 -305 -252 -470 -172 -371 -221 -620
-170 -866 56 -270 256 -508 588 -698 102 -57 311 -147 342 -145 11 0 12 2 3 6
-14 6 -120 156 -185 263 -88 145 -119 289 -77 358 25 41 64 58 173 73 226 33
658 -62 959 -211 207 -103 368 -244 439 -382 44 -87 53 -151 53 -388 0 -338
-53 -852 -130 -1267 -14 -76 -41 -221 -60 -323 -54 -292 -84 -466 -94 -543 -5
-40 -18 -141 -30 -226 -29 -222 -58 -559 -76 -905 -18 -338 -33 -2516 -18
-2516 5 0 22 24 38 53 16 28 56 93 89 142 196 295 395 457 643 521 86 22 114
25 214 21 225 -9 404 -98 602 -300 86 -89 236 -295 294 -407 l29 -55 3 355 c4
529 -16 1904 -33 2235 -29 559 -87 1013 -245 1900 -84 468 -134 951 -134 1295
-1 315 10 367 107 495 77 101 241 227 404 309 254 127 699 222 916 195 131
-16 188 -56 201 -141 15 -105 -88 -330 -232 -506 -19 -23 -33 -45 -30 -47 8
-8 226 82 318 132 329 178 525 395 600 664 55 198 30 423 -77 694 -90 228
-330 685 -346 658 -3 -4 -17 -52 -31 -105 -91 -335 -249 -558 -476 -673 -193
-98 -477 -151 -869 -162 l-214 -6 128 124 c433 421 782 983 951 1533 97 315
128 541 129 916 0 306 -8 373 -71 624 -174 689 -672 1179 -1379 1355 -242 60
-489 80 -770 61z m534 -144 c222 -36 408 -90 576 -171 570 -271 931 -821 990
-1505 51 -599 -115 -1260 -463 -1840 -201 -336 -454 -643 -742 -900 l-173
-155 199 -8 c554 -23 1044 52 1289 197 169 101 329 296 403 493 15 40 30 73
34 73 11 0 113 -214 174 -368 82 -203 104 -289 111 -422 10 -191 -27 -325
-126 -467 -83 -117 -275 -285 -365 -319 -22 -8 -24 -17 23 116 24 66 31 102
31 160 0 125 -41 185 -157 232 -54 21 -72 23 -248 23 -202 -1 -286 -13 -505
-72 -310 -83 -570 -220 -755 -395 -143 -135 -192 -242 -201 -433 -2 -54 -9
-104 -14 -109 -13 -13 -13 -29 0 -21 21 13 9 -33 -15 -55 -23 -22 -25 -22 -50
-6 -15 10 -24 23 -21 31 3 8 -6 23 -20 34 l-24 19 40 35 c22 18 40 39 40 45 0
6 10 8 23 4 18 -4 20 -3 12 9 -6 8 -9 48 -8 89 2 41 3 87 3 103 1 15 -6 34
-15 43 -23 24 -16 89 11 89 34 1 59 14 79 45 11 16 23 30 28 30 4 0 7 5 7 11
0 6 -7 8 -15 5 -33 -12 -42 70 -11 99 70 65 466 279 628 339 259 96 540 149
798 150 212 1 307 -24 394 -104 71 -66 104 -163 85 -249 -5 -24 -8 -46 -5 -48
9 -10 117 101 156 159 108 162 126 377 53 633 -24 86 -104 268 -135 309 -14
18 -17 15 -52 -48 -110 -197 -327 -361 -586 -444 -215 -69 -510 -104 -860
-105 -349 0 -660 29 -660 62 0 4 10 12 23 18 37 17 226 161 333 254 96 84 267
260 367 378 68 80 223 296 300 418 232 370 409 859 467 1288 6 44 13 179 17
300 5 195 3 238 -17 374 -77 530 -320 927 -735 1197 -313 203 -726 308 -1140
290 -433 -19 -743 -116 -1045 -327 -98 -68 -321 -293 -389 -392 -65 -96 -148
-261 -191 -382 -157 -442 -137 -1139 46 -1667 150 -431 411 -863 729 -1208
163 -177 447 -420 609 -519 36 -23 37 -25 20 -38 -10 -7 -36 -13 -58 -13 -23
0 -108 -7 -191 -15 -267 -28 -758 -20 -985 16 -426 67 -700 224 -855 492 -27
48 -54 87 -58 87 -15 0 -115 -223 -141 -315 -65 -233 -54 -444 31 -595 29 -51
117 -162 159 -200 l27 -25 -9 30 c-5 17 -8 60 -7 96 8 241 233 336 676 284
299 -35 553 -111 812 -244 168 -86 335 -190 335 -208 0 -7 -13 -22 -30 -35
-16 -12 -30 -28 -30 -35 0 -21 -13 -16 -56 21 -242 207 -710 388 -1099 425
-108 11 -289 -1 -363 -24 -155 -47 -202 -208 -124 -422 17 -46 26 -83 20 -83
-18 0 -158 102 -228 167 -126 117 -202 236 -241 380 -19 68 -21 95 -16 218 6
155 22 230 87 398 43 113 114 276 161 370 35 69 34 70 75 -44 90 -254 282
-453 534 -557 130 -53 356 -100 570 -117 120 -10 752 -7 763 4 5 5 -24 32 -65
61 -97 71 -326 296 -453 445 -380 447 -637 926 -760 1415 -74 297 -89 424 -89
750 0 277 8 355 65 582 38 153 70 239 137 373 111 224 263 407 470 569 268
211 622 346 1007 385 130 14 451 6 574 -13z m-109 -430 c333 -45 591 -165 819
-382 131 -125 217 -240 290 -389 123 -250 171 -472 171 -786 0 -359 -51 -641
-178 -994 -169 -466 -486 -948 -776 -1181 -119 -95 -385 -248 -402 -231 -3 3
-15 41 -27 84 -17 65 -21 106 -21 243 0 207 22 320 89 458 l45 94 -47 42 c-53
47 -109 129 -159 234 -19 39 -36 72 -39 72 -3 0 -11 -16 -19 -35 -27 -65 -136
-223 -186 -269 -54 -51 -57 -57 -36 -75 22 -18 84 -175 102 -255 24 -109 32
-241 23 -353 -8 -110 -35 -222 -54 -229 -37 -15 -283 130 -422 248 -398 337
-747 967 -867 1568 -39 194 -49 307 -50 550 -1 319 34 511 134 742 161 370
491 664 886 787 214 67 485 88 724 57z m-270 -4177 c0 -12 -10 -23 -26 -29
-14 -6 -23 -14 -19 -20 6 -10 36 -2 47 14 5 7 8 4 8 -6 0 -25 -28 -36 -66 -28
-19 5 -37 3 -43 -3 -5 -5 -25 -11 -43 -12 -57 -3 -106 -33 -118 -70 -6 -18
-18 -39 -27 -47 -14 -11 -16 -11 -8 2 5 8 8 27 7 43 -2 16 3 36 10 44 17 21
63 43 95 45 18 2 41 17 67 45 26 29 48 43 70 45 40 4 46 1 46 -23z m175 -11
c18 -15 32 -34 32 -43 0 -19 -2 -19 -35 -1 -44 24 -90 36 -94 25 -5 -16 -38 2
-38 20 0 27 10 32 59 29 32 -1 53 -10 76 -30z m-119 -59 c3 -6 22 -9 40 -7 19
2 34 0 34 -4 0 -4 8 -8 18 -8 27 -1 62 -36 62 -63 0 -42 -29 -41 -81 3 -26 22
-54 40 -61 40 -21 1 -51 28 -43 39 8 14 22 14 31 0z m-9 -66 c37 -26 41 -32
28 -43 -13 -11 -14 -10 -9 3 9 24 -35 31 -98 17 -63 -15 -80 -22 -86 -39 -3
-10 2 -11 19 -6 21 6 20 3 -10 -24 -18 -18 -36 -29 -40 -26 -3 4 1 12 10 18
14 11 22 57 8 57 -3 0 -14 -16 -25 -35 -17 -32 -19 -33 -36 -18 -17 15 -18 14
-18 -30 0 -32 4 -47 13 -47 14 0 54 -106 44 -117 -4 -3 -7 -1 -7 5 0 6 -7 9
-15 6 -24 -9 -17 -24 10 -24 14 0 25 -4 25 -8 0 -15 140 -73 160 -67 11 4 20
2 20 -4 0 -17 -22 -25 -63 -22 -25 1 -36 -2 -32 -9 11 -18 88 -11 115 10 14
11 21 20 15 20 -5 1 10 11 35 23 35 17 52 34 73 75 20 36 26 57 19 65 -5 7
-15 28 -21 48 -6 20 -28 55 -47 77 -19 23 -33 46 -29 52 10 16 21 12 35 -15 8
-14 20 -23 27 -21 7 3 13 -1 13 -9 0 -8 7 -15 15 -15 8 0 15 -5 15 -10 0 -6 9
-23 19 -38 29 -39 37 -95 17 -115 -9 -8 -16 -25 -16 -36 0 -12 -4 -21 -10 -21
-5 0 -10 -6 -10 -14 0 -7 -7 -19 -16 -27 -13 -10 -17 -10 -25 2 -6 11 -9 8 -9
-11 -1 -21 -12 -31 -68 -58 -85 -42 -120 -48 -177 -31 -49 14 -78 40 -115 103
-22 37 -22 39 -4 32 13 -5 7 5 -17 31 -49 51 -73 114 -57 148 9 21 17 25 36
20 15 -4 21 -2 17 5 -3 5 -13 10 -21 10 -18 0 -18 21 0 64 11 28 25 38 77 58
91 36 160 33 216 -9z m272 -79 c12 -60 12 -66 -5 -78 -20 -15 -54 -10 -54 9 0
7 -7 18 -15 25 -16 13 -19 58 -8 98 4 17 11 22 25 19 18 -5 19 -4 4 12 -27 30
-18 36 12 8 21 -20 32 -45 41 -93z m156 85 c4 -6 4 -13 0 -17 -3 -3 -10 -1
-14 7 -6 9 -14 2 -30 -24 -11 -20 -21 -40 -21 -45 0 -5 -5 -12 -10 -15 -6 -4
-8 8 -4 32 7 53 60 94 79 62z m-797 -51 c2 -29 7 -55 13 -58 14 -9 -13 -110
-29 -110 -22 0 -72 57 -72 82 0 25 30 79 63 116 11 12 21 22 21 22 1 0 2 -24
4 -52z m888 34 c-3 -5 -21 -33 -41 -61 -19 -29 -35 -57 -35 -63 0 -15 -43 -47
-62 -48 -10 0 -18 -4 -18 -10 0 -5 -4 -10 -9 -10 -18 0 -3 52 23 79 14 15 26
32 26 39 0 6 18 23 39 36 22 14 42 30 46 36 3 5 13 10 21 10 8 0 13 -4 10 -8z
m-184 -47 c-5 -16 -11 -25 -14 -20 -6 11 10 61 17 53 2 -2 1 -17 -3 -33z
m-335 -11 c-3 -3 12 -34 34 -69 21 -34 39 -68 39 -76 -1 -21 -21 -42 -63 -65
-33 -18 -45 -19 -82 -11 -24 6 -46 16 -49 23 -4 11 -1 11 14 2 23 -15 115 4
142 29 26 23 22 42 -12 73 -17 15 -30 31 -29 36 5 27 -1 36 -15 25 -9 -7 -29
-10 -49 -7 -24 4 -39 1 -47 -9 -7 -9 -8 -15 -2 -15 5 0 9 -23 8 -52 -1 -40 -5
-53 -16 -53 -11 0 -14 10 -12 38 2 25 -1 37 -7 32 -6 -3 -11 -18 -12 -33 -1
-26 -1 -26 -12 6 -9 28 -7 35 11 52 11 11 27 29 36 41 11 16 28 23 63 26 26 3
50 7 52 9 2 2 7 4 9 4 3 0 3 -3 -1 -6z m48 -32 c34 -23 56 -73 54 -121 -2 -27
-5 -50 -8 -49 -19 2 -24 -4 -11 -12 13 -8 12 -11 -4 -23 -24 -18 -114 -42
-141 -38 -40 6 -39 21 2 21 24 0 46 6 53 15 7 8 21 15 31 15 23 0 55 46 61 89
5 34 3 37 -49 94 -16 17 -8 24 12 9z m-129 -59 c-10 -10 -19 5 -10 18 6 11 8
11 12 0 2 -7 1 -15 -2 -18z m-476 7 c-13 -8 -12 -10 5 -10 14 0 16 -3 7 -12
-8 -8 -15 -8 -27 2 -8 7 -18 10 -21 7 -3 -3 5 -13 19 -22 27 -17 41 -51 26
-61 -11 -6 -2 -24 11 -24 5 0 7 7 4 15 -8 20 6 19 22 -2 19 -25 17 -30 -12
-37 -31 -8 -96 28 -88 49 4 9 -1 13 -15 12 -12 -1 -21 -5 -21 -10 0 -5 -18 8
-40 29 -22 22 -40 43 -40 48 0 4 16 5 35 2 24 -5 35 -3 35 5 0 7 10 9 25 7 14
-3 25 -1 25 3 0 5 15 9 33 9 24 0 28 -3 17 -10z m534 -5 c3 -8 1 -15 -4 -15
-6 0 -10 7 -10 15 0 8 2 15 4 15 2 0 6 -7 10 -15z m332 -113 c-6 -43 -37 -97
-50 -85 -3 3 -6 1 -6 -5 0 -7 -6 -12 -14 -12 -9 0 -14 -9 -13 -20 1 -12 7 -18
14 -16 7 3 13 2 13 -3 0 -19 -98 -44 -120 -31 -11 7 -9 11 12 20 39 18 97 142
92 200 -3 42 -2 43 8 18 15 -36 23 -35 38 5 l12 32 10 -30 c5 -16 6 -49 4 -73z
m-818 76 c6 9 13 6 28 -10 22 -26 21 -60 -2 -51 -11 4 -12 9 -3 19 9 11 7 14
-14 14 -26 0 -52 22 -40 34 4 3 10 1 15 -6 6 -10 10 -11 16 0z m449 -13 c-6
-7 -15 -11 -19 -8 -14 8 -8 19 12 20 16 1 17 -1 7 -12z m-284 -65 c7 -17 17
-28 24 -26 7 3 15 1 18 -4 3 -4 -1 -10 -7 -13 -10 -3 -10 -10 2 -33 18 -35
111 -134 125 -134 16 0 41 -63 27 -68 -7 -2 -12 -10 -12 -18 0 -9 -11 -14 -34
-14 -27 0 -43 9 -75 43 -22 23 -41 48 -41 55 0 6 -4 12 -9 12 -5 0 -11 8 -13
18 -3 11 -22 23 -46 30 -49 15 -53 20 -59 77 -6 62 18 105 58 105 25 0 33 -6
42 -30z m172 10 c3 -5 1 -10 -4 -10 -6 0 -11 5 -11 10 0 6 2 10 4 10 3 0 8 -4
11 -10z m718 -10 c34 0 6 -19 -34 -23 -20 -2 -42 -7 -50 -11 -8 -4 -3 1 10 12
19 15 21 21 10 25 -8 2 -1 3 15 1 16 -2 38 -4 49 -4z m113 -9 c-4 -6 -23 -13
-44 -16 -20 -3 -52 -13 -69 -20 -42 -19 -42 -6 0 21 33 21 124 33 113 15z
m-206 -5 c0 -2 -7 -9 -15 -16 -13 -11 -14 -10 -9 4 5 14 24 23 24 12z m-60
-46 c0 -5 -5 -10 -11 -10 -5 0 -7 5 -4 10 3 6 8 10 11 10 2 0 4 -4 4 -10z m66
1 c-3 -5 -15 -11 -26 -14 -17 -4 -19 -3 -9 9 12 15 44 20 35 5z m44 -16 c0 -6
-30 -18 -70 -29 -19 -5 -16 -2 10 13 34 20 60 26 60 16z m-146 -20 c3 -8 1
-15 -4 -15 -6 0 -10 7 -10 15 0 8 2 15 4 15 2 0 6 -7 10 -15z m226 9 c0 -13
-22 -44 -32 -44 -7 0 -6 5 2 15 14 17 0 21 -17 4 -6 -6 -22 -7 -38 -3 l-28 7
24 13 c24 13 89 19 89 8z m-252 -76 c-3 -7 -9 -13 -14 -13 -5 0 -27 -19 -48
-43 -30 -33 -42 -40 -52 -31 -11 9 -9 16 9 41 30 41 115 78 105 46z m-184 -39
c12 19 35 -6 29 -30 -4 -15 -8 -17 -14 -8 -6 10 -11 10 -23 -1 -22 -17 -25
-12 -18 30 4 28 6 31 12 16 5 -14 9 -16 14 -7z m-555 -8 c12 -8 12 -13 3 -24
-10 -12 -9 -16 4 -21 10 -4 22 1 30 11 16 23 36 6 28 -24 -5 -18 -10 -20 -31
-12 -38 14 -127 11 -149 -6 -19 -14 -54 -20 -54 -9 0 3 9 19 21 35 18 26 26
29 75 29 50 0 71 12 42 23 -9 4 -8 6 2 6 8 0 21 -3 29 -8z m490 -22 c-5 -9 -4
-20 2 -26 17 -17 -1 -63 -27 -69 -12 -3 -28 -3 -35 1 -6 4 -15 2 -19 -4 -5 -9
-19 -6 -51 12 -35 20 -43 30 -44 53 0 24 5 31 34 39 19 6 60 10 92 10 49 0 56
-2 48 -16z m321 1 c24 -24 25 -58 6 -105 -17 -39 -18 -40 -45 -23 -15 9 -17
17 -10 43 5 17 11 45 13 62 2 25 0 30 -13 26 -14 -4 -14 -3 -1 6 21 15 27 14
50 -9z m-61 -52 c-3 -49 -14 -78 -31 -78 -9 0 -9 3 -1 11 7 7 8 21 0 44 -7 25
-7 37 4 49 23 25 31 18 28 -26z m-770 -50 c-14 -12 -38 -18 -70 -18 -47 0
-102 17 -95 29 2 3 45 6 96 6 88 0 90 -1 69 -17z m312 -48 c-18 -17 -31 -36
-29 -42 3 -7 12 -4 26 10 12 12 24 17 27 11 4 -5 11 -7 16 -4 15 10 8 -10 -19
-54 -1 -3 -9 4 -17 15 -8 11 -15 14 -15 7 0 -7 -6 -13 -12 -13 -21 0 -65 -44
-61 -60 3 -8 -5 0 -17 18 -27 39 -21 60 20 68 16 4 30 10 30 14 0 4 11 19 25
34 14 15 25 35 25 44 0 15 1 15 17 -1 16 -16 16 -19 -16 -47z m-146 32 c-3 -3
-11 0 -18 7 -9 10 -8 11 6 5 10 -3 15 -9 12 -12z m-48 -9 c2 -6 -5 -14 -16
-18 -12 -3 -21 -10 -21 -15 0 -5 8 -7 18 -3 9 3 14 3 10 -1 -27 -31 -163 -1
-137 30 14 16 43 19 33 3 -3 -6 7 -4 22 5 32 18 85 17 91 -1z m150 -7 c-8 -16
-17 -22 -30 -18 -18 5 -18 6 4 23 32 25 39 24 26 -5z m374 -3 c11 -12 7 -14
-27 -10 -21 2 -48 8 -59 13 -18 8 -17 9 10 14 37 7 61 2 76 -17z m-251 3 c0
-3 -4 -8 -10 -11 -5 -3 -10 -1 -10 4 0 6 5 11 10 11 6 0 10 -2 10 -4z m407
-13 c2 -6 -5 -13 -17 -16 -22 -6 -23 -5 -14 18 7 17 25 16 31 -2z m-247 -9 c0
-2 -9 -4 -21 -4 -11 0 -18 4 -14 10 5 8 35 3 35 -6z m117 -30 c22 -14 41 -59
29 -71 -3 -3 -18 7 -33 23 -15 16 -41 40 -58 52 l-30 23 35 -7 c19 -3 45 -12
57 -20z m-708 -29 c40 -17 67 -23 73 -17 10 10 48 5 48 -7 0 -3 -4 -13 -10
-21 -6 -9 -5 -20 3 -29 9 -11 9 -13 0 -8 -16 10 -26 -62 -20 -142 6 -65 32
-111 65 -111 27 0 7 -86 -27 -119 -17 -17 -33 -41 -37 -56 -12 -48 6 -154 37
-212 l30 -56 -16 -91 c-9 -50 -24 -118 -32 -151 -18 -69 -18 -83 -9 -182 4
-47 3 -88 -5 -115 -7 -24 -13 -74 -14 -113 -6 -198 -118 -769 -154 -783 -9 -3
-25 -14 -36 -24 -19 -19 -19 -19 4 -64 20 -36 24 -59 23 -111 -2 -61 -6 -73
-56 -154 -54 -86 -55 -88 -70 -215 -14 -117 -14 -137 0 -219 21 -119 23 -151
12 -210 -5 -27 -13 -126 -17 -220 -5 -93 -14 -183 -21 -200 -16 -39 -14 -88 5
-124 10 -21 15 -59 15 -121 l0 -91 -30 -11 c-35 -12 -48 -46 -29 -80 34 -60
44 -163 18 -194 -6 -7 -12 -26 -14 -41 -1 -15 -7 -58 -14 -94 -7 -41 -8 -83
-2 -112 14 -79 21 -761 8 -956 -6 -100 -5 -122 5 -118 8 2 47 29 88 58 105 76
197 121 330 164 105 34 128 38 262 42 154 6 217 -1 338 -39 107 -34 220 -93
317 -168 51 -38 95 -70 98 -70 3 0 5 140 5 312 -1 257 -4 322 -17 370 -13 48
-14 61 -4 67 11 7 26 29 47 68 3 7 -3 25 -14 40 -12 17 -24 62 -32 115 -12 77
-11 92 3 130 36 95 52 318 23 318 -8 0 -16 -5 -18 -12 -3 -7 -10 -8 -17 -4
-10 6 -12 41 -10 140 3 119 6 134 26 159 25 30 30 62 12 72 -6 4 -8 14 -5 22
4 9 2 21 -2 27 -23 29 -30 74 -16 101 19 36 18 41 -16 109 -26 52 -28 63 -17
80 27 44 51 120 38 124 -8 3 -7 8 4 16 22 16 10 43 -26 62 -16 8 -29 11 -30 7
0 -5 -9 12 -20 37 l-20 44 37 72 c36 71 37 74 30 154 -4 45 -18 116 -32 158
-15 42 -30 106 -35 142 -5 35 -20 87 -33 115 -12 27 -21 55 -19 62 2 6 -5 17
-16 23 -12 6 -21 17 -21 25 0 8 -6 15 -14 15 -14 0 -26 21 -26 47 0 9 6 13 15
9 8 -3 15 -1 15 4 0 6 9 10 21 10 23 0 23 9 0 130 -6 31 -8 112 -5 186 l5 130
-26 12 c-14 7 -36 12 -49 12 -20 0 -26 10 -47 88 -29 108 -28 99 -8 147 10 21
16 42 14 45 -2 4 -11 40 -19 81 -9 41 -25 99 -35 130 -18 49 -19 66 -10 150 5
58 6 126 0 174 -5 51 -5 85 1 92 6 7 8 19 5 27 -3 8 1 40 8 73 8 32 14 61 15
65 0 4 -22 10 -49 14 -37 5 -51 12 -59 29 -12 25 8 65 32 65 8 0 16 8 18 18 3
10 28 37 56 60 l50 42 6 -72 c3 -40 10 -140 16 -223 13 -178 35 -383 55 -515
8 -52 17 -115 20 -140 14 -105 37 -243 60 -365 124 -655 203 -1251 235 -1760
17 -291 29 -780 36 -1520 l6 -730 -43 50 c-232 271 -494 418 -769 432 -304 16
-603 -136 -848 -432 l-42 -50 0 700 c0 778 10 1177 40 1615 41 613 70 840 203
1575 30 165 58 320 61 345 4 25 16 104 27 175 53 351 82 685 82 980 1 290 -8
351 -69 471 -24 47 -38 82 -31 76 6 -5 41 -22 76 -37z m507 13 c-18 -18 -40
-37 -49 -43 -18 -11 -29 -89 -17 -120 5 -11 17 -30 29 -42 18 -19 19 -23 5
-31 -8 -5 -16 -16 -18 -25 -4 -30 -15 -30 -57 1 -45 33 -66 34 -49 1 6 -11 15
-17 20 -14 5 3 11 -3 15 -14 3 -11 12 -22 19 -24 22 -9 -12 -77 -33 -70 -27 9
-89 83 -95 115 -8 42 2 76 25 80 17 3 17 6 6 28 -7 14 -11 33 -9 43 4 19 42
24 42 5 0 -29 35 -88 52 -88 10 0 18 -3 18 -8 0 -11 41 -34 48 -28 3 4 -12 24
-33 46 -31 31 -39 48 -41 80 -2 35 3 45 42 83 41 38 68 53 101 56 7 1 -3 -14
-21 -31z m111 -4 c7 -21 -27 -44 -53 -38 -14 4 -31 1 -39 -6 -26 -22 -25 -6 2
28 20 27 31 32 56 30 17 -2 32 -8 34 -14z m43 -27 c22 -17 60 -68 60 -80 0 -5
-8 -7 -19 -4 -14 3 -17 0 -14 -14 3 -10 9 -17 13 -14 13 8 22 -95 9 -111 -16
-20 -22 -18 -41 16 -17 29 -15 60 2 60 7 0 8 20 1 63 0 4 -4 6 -8 5 -5 -2 -9
0 -10 5 -2 4 -12 16 -23 27 -23 23 -18 43 8 33 15 -6 15 -5 3 10 -16 20 -3 22
19 4z m-309 -40 c-1 -12 -15 -9 -19 4 -3 6 1 10 8 8 6 -3 11 -8 11 -12z m193
-2 c3 -9 0 -15 -9 -15 -9 0 -12 6 -9 15 4 8 7 15 9 15 2 0 5 -7 9 -15z m-338
-13 c-3 -5 5 -8 17 -8 16 1 23 -5 25 -24 2 -19 -5 -29 -29 -43 -17 -10 -29
-21 -25 -25 4 -3 11 0 16 7 11 19 41 6 34 -14 -3 -8 -13 -15 -21 -15 -8 0 -11
-5 -8 -10 4 -6 11 -8 16 -4 6 3 7 -4 4 -19 -4 -15 -2 -28 6 -33 9 -5 8 -9 -7
-15 -18 -8 -18 -8 3 -14 12 -4 24 -17 27 -29 3 -12 17 -28 31 -36 24 -13 34
-30 16 -30 -4 0 -20 9 -34 20 -14 11 -31 20 -39 20 -7 0 -26 11 -42 23 -28 23
-29 25 -13 48 10 14 17 18 17 9 0 -10 3 -11 10 -4 7 7 6 20 -5 40 -13 25 -17
24 -15 -2 1 -9 -45 -42 -52 -37 -5 2 -8 12 -8 21 0 14 2 15 10 2 15 -24 22 -5
9 26 -18 45 -19 75 -3 106 8 15 11 28 8 28 -4 0 -4 3 -1 7 4 3 14 -2 22 -13
13 -18 14 -18 8 4 -4 16 -1 22 11 22 10 0 15 -4 12 -8z m613 -21 c13 -23 -4
-163 -25 -206 -17 -36 -47 -60 -63 -51 -9 6 -57 -45 -53 -56 3 -12 -32 -27
-83 -33 -27 -3 -53 -12 -60 -21 -8 -12 -22 -15 -53 -11 -23 2 -42 0 -42 -4 0
-16 -41 -9 -47 8 -4 10 3 24 20 39 15 13 27 30 27 39 0 8 7 15 15 15 8 0 15
-6 15 -14 0 -12 5 -12 32 2 19 9 61 16 99 17 37 1 74 7 82 13 8 7 16 10 19 7
11 -12 30 27 31 62 0 25 8 47 22 63 30 34 33 48 19 89 -19 56 19 92 45 42z
m-332 -36 c-3 -19 -1 -37 4 -40 5 -4 9 0 9 7 1 9 5 7 14 -4 15 -21 32 -23 39
-5 2 6 7 10 10 7 11 -10 -10 -31 -35 -35 -19 -4 -30 1 -42 20 -16 25 -21 66
-9 78 13 14 16 6 10 -28z m100 13 c-3 -8 -6 -5 -6 6 -1 11 2 17 5 13 3 -3 4
-12 1 -19z m43 2 c6 -11 7 -20 2 -20 -6 0 -12 9 -15 20 -3 11 -3 20 -1 20 2 0
8 -9 14 -20z m-75 0 c-3 -5 -12 -10 -18 -10 -7 0 -6 4 3 10 19 12 23 12 15 0z
m192 -62 c-3 -7 -5 -2 -5 12 0 14 2 19 5 13 2 -7 2 -19 0 -25z m-107 -7 c0 -5
-7 -11 -15 -15 -15 -5 -20 5 -8 17 9 10 23 9 23 -2z m10 -81 c-6 -11 -31 -33
-56 -51 -38 -26 -51 -30 -80 -24 -44 8 -52 27 -28 70 14 26 23 33 39 29 11 -2
43 4 70 14 49 18 50 18 57 -1 5 -10 3 -27 -2 -37z m55 -30 c9 -15 -31 -48 -69
-55 -53 -10 -66 -1 -26 20 18 10 40 24 48 31 16 16 38 18 47 4z m-325 -96 c0
-2 -8 0 -19 5 -10 6 -22 7 -26 3 -5 -4 -5 -1 -1 6 5 9 12 9 27 2 10 -6 19 -13
19 -16z m-75 -4 c16 0 22 -5 21 -17 0 -10 5 -17 12 -15 17 3 15 -8 -5 -30 -22
-25 -53 -24 -53 2 0 11 -6 19 -12 18 -8 -2 -14 9 -16 26 -3 23 0 28 13 22 9
-3 27 -6 40 -6z m-115 -82 c17 -12 30 -26 30 -31 0 -4 6 -15 14 -22 8 -8 17
-36 20 -62 13 -98 15 -152 8 -157 -4 -2 -8 15 -10 37 -1 23 -9 47 -17 53 -17
13 -21 29 -4 18 6 -3 4 8 -5 24 -17 33 -23 79 -7 53 5 -7 11 -9 14 -4 4 6 0
19 -8 29 -13 18 -14 18 -24 -9 -14 -37 -14 -42 4 -57 8 -7 15 -17 15 -23 0 -6
-11 0 -25 13 -35 33 -31 19 10 -40 38 -54 45 -72 18 -47 -10 8 -30 19 -46 22
-28 7 -59 45 -37 45 6 0 8 4 5 10 -12 19 -17 100 -7 100 6 0 8 9 5 20 -5 20 2
50 12 50 3 0 19 -10 35 -22z m503 -20 c12 -6 27 -18 33 -26 6 -8 16 -12 22 -8
7 4 12 0 12 -10 0 -16 1 -16 19 0 12 11 21 14 26 7 3 -6 11 -11 16 -11 6 0 7
5 4 10 -3 6 -1 10 4 10 6 0 11 -3 11 -6 0 -9 -68 -95 -93 -116 -27 -25 -89
-23 -112 2 -10 11 -25 20 -33 20 -10 0 -13 8 -10 30 3 17 1 30 -4 30 -13 0
-10 12 12 48 21 35 53 42 93 20z m-113 -29 c0 -12 -7 -19 -20 -19 -21 0 -24 8
-14 34 8 20 34 9 34 -15z m-269 -82 c-8 -8 -11 -5 -11 9 0 27 14 41 18 19 2
-9 -1 -22 -7 -28z m214 -72 c-10 -30 -21 -55 -26 -55 -14 0 -90 -74 -105 -102
-24 -47 -33 -31 -13 22 10 28 19 62 19 76 0 27 74 114 97 114 6 0 15 5 19 12
4 7 3 8 -4 4 -16 -10 -15 7 0 22 24 24 32 -32 13 -93z m-131 60 c-5 -11 -2
-13 10 -9 12 5 16 0 16 -19 0 -13 -6 -30 -14 -36 -11 -9 -12 -6 -9 16 4 26 3
26 -8 8 -12 -19 -12 -19 -20 0 -6 17 -8 16 -8 -7 -1 -16 -6 -28 -12 -28 -12 0
-4 34 17 68 16 25 37 30 28 7z m-203 -101 c17 -8 28 -18 25 -21 -7 -8 -66 17
-66 28 0 12 6 11 41 -7z m164 -23 c-3 -12 -11 -21 -17 -21 -6 0 -6 6 2 15 7 8
9 23 6 32 -6 14 -4 15 4 7 7 -7 9 -21 5 -33z m212 -3 c2 6 14 12 25 12 15 0
18 -4 13 -17 -3 -10 -9 -31 -12 -47 -3 -15 -27 -50 -52 -77 -39 -41 -54 -50
-94 -55 -62 -9 -64 12 -2 27 49 12 63 24 40 33 -8 3 -17 1 -20 -4 -4 -6 -12
-10 -18 -10 -7 0 -6 4 3 10 12 8 13 10 1 10 -8 0 -23 -8 -34 -17 -18 -17 -18
-17 0 14 11 20 29 35 46 39 15 3 33 11 40 18 6 6 28 17 47 24 l35 11 -35 -6
c-19 -3 -41 -10 -48 -16 -7 -5 -16 -7 -19 -3 -4 4 -1 11 7 16 8 6 11 10 5 10
-5 0 4 8 20 19 21 12 32 15 38 7 6 -8 10 -7 14 2z m-206 -69 c-6 -16 -10 -18
-10 -7 -1 22 12 55 16 42 2 -6 -1 -22 -6 -35z m-64 -11 c1 -30 1 -31 -6 -8 -7
21 -5 40 2 40 2 0 3 -15 4 -32z m420 -14 c-3 -3 -12 -4 -19 -1 -8 3 -5 6 6 6
11 1 17 -2 13 -5z m56 -20 c-14 -22 -14 -24 2 -24 12 0 15 -6 11 -20 -3 -11
-9 -29 -12 -40 -3 -11 -17 -33 -31 -48 -15 -15 -23 -21 -19 -14 10 17 -2 15
-40 -9 l-34 -21 0 24 -1 23 -18 -23 c-12 -14 -25 -20 -36 -16 -20 8 -15 26 9
30 32 5 76 26 71 34 -3 5 0 12 6 16 8 4 9 3 5 -4 -10 -16 17 -15 32 0 17 17
15 28 -5 21 -13 -4 -11 1 6 17 15 15 20 25 12 28 -6 2 -21 -8 -32 -22 -11 -14
-27 -26 -35 -26 -8 0 -14 -3 -14 -7 0 -5 -13 -17 -27 -28 l-27 -19 24 39 c48
81 61 95 86 95 13 0 24 3 24 8 0 4 13 7 29 8 29 1 29 0 14 -22z m-493 -68
c-13 -6 -24 -4 -34 7 -23 23 -19 33 4 12 19 -18 20 -17 20 5 0 23 0 23 14 4
13 -17 13 -20 -4 -28z m82 -30 c-1 -29 -7 -66 -12 -82 -8 -28 -8 -28 -9 -4 0
14 3 42 8 63 5 21 5 39 0 43 -14 8 -11 34 4 34 9 0 12 -15 9 -54z m28 34 c0
-5 -5 -10 -11 -10 -5 0 -7 5 -4 10 3 6 8 10 11 10 2 0 4 -4 4 -10z m171 -23
c-10 -9 -11 -8 -5 6 3 10 9 15 12 12 3 -3 0 -11 -7 -18z m-224 -29 c-3 -8 -6
-5 -6 6 -1 11 2 17 5 13 3 -3 4 -12 1 -19z m163 -74 c0 -21 -19 -54 -31 -54
-8 0 -3 42 8 63 7 13 23 7 23 -9z m-182 -29 c-3 -3 -9 2 -12 12 -6 14 -5 15 5
6 7 -7 10 -15 7 -18z m-97 -12 c9 -8 20 -13 25 -12 17 4 44 -13 44 -28 0 -8 5
-11 10 -8 6 3 10 2 10 -3 0 -5 9 -19 20 -32 22 -25 26 -40 10 -40 -5 0 -10 4
-10 8 0 5 -9 19 -19 31 -14 16 -21 18 -24 9 -3 -8 -6 -6 -6 5 -1 10 -6 15 -11
12 -6 -3 -14 2 -18 12 -8 20 -32 29 -32 12 0 -6 -7 -3 -16 5 -8 9 -25 16 -37
15 -21 0 -21 -1 -4 -12 11 -7 35 -28 55 -47 19 -19 42 -34 51 -32 13 2 13 1 2
-6 -11 -8 -11 -10 0 -14 18 -6 1 -28 -22 -28 -22 0 -83 29 -76 36 2 2 20 -3
40 -11 21 -8 37 -11 37 -7 0 13 -76 45 -88 38 -5 -3 -12 1 -16 9 -3 8 -1 15 5
15 5 0 3 10 -5 23 -8 12 -17 32 -21 44 -6 21 -4 22 26 16 23 -4 30 -3 25 5 -9
15 23 4 45 -15z m267 -33 c-12 -19 -28 -27 -28 -14 0 6 30 33 38 34 1 0 -3 -9
-10 -20z m127 2 c-6 -5 -23 -14 -39 -21 -26 -11 -28 -10 -17 3 7 8 22 17 34
19 12 2 24 5 27 6 2 0 0 -3 -5 -7z m157 -10 c-6 -2 -10 -8 -6 -13 7 -12 15
-53 8 -47 -2 3 -19 -8 -35 -23 -17 -16 -41 -29 -53 -29 -17 0 -18 -2 -6 -10
10 -7 -2 -9 -40 -4 -30 4 -59 10 -64 15 -13 12 10 12 52 0 19 -6 32 -6 32 0 0
5 11 11 25 15 24 6 36 34 15 34 -5 0 -10 -4 -10 -10 0 -5 -7 -7 -15 -4 -11 5
-7 11 17 23 17 9 34 22 36 29 2 7 -10 4 -32 -9 -20 -11 -36 -17 -36 -12 0 19
31 52 53 55 27 4 77 -4 59 -10z m-258 -52 c-15 -28 -29 -49 -31 -46 -6 5 44
96 53 96 2 0 -8 -23 -22 -50z m136 24 c0 -8 -5 -14 -11 -14 -5 0 -8 -4 -5 -8
3 -5 0 -9 -7 -9 -7 0 -23 -3 -35 -7 -22 -7 -23 -6 -13 13 14 25 51 52 63 45 4
-3 8 -12 8 -20z m-276 1 c3 -8 1 -15 -4 -15 -6 0 -10 7 -10 15 0 8 2 15 4 15
2 0 6 -7 10 -15z m116 -125 c0 -5 -9 -10 -21 -10 -31 0 -79 -32 -79 -52 0 -10
-9 -27 -20 -38 -23 -23 -26 -40 -7 -40 9 0 14 -15 15 -46 3 -53 -13 -51 -23 3
-9 52 -23 73 -40 67 -22 -9 -18 17 9 49 39 48 166 99 166 67z m-170 -15 c-7
-9 -15 -13 -19 -10 -3 3 1 10 9 15 21 14 24 12 10 -5z m297 -20 c-2 -5 -17
-12 -33 -13 -16 -2 -32 -9 -36 -17 -8 -13 -111 -16 -124 -3 -13 14 19 38 50
38 17 0 49 6 70 14 41 14 80 4 73 -19z m-327 -5 c0 -5 -5 -10 -11 -10 -5 0 -7
5 -4 10 3 6 8 10 11 10 2 0 4 -4 4 -10z m359 -30 c4 0 12 5 17 10 7 7 21 6 45
-4 19 -9 28 -15 20 -16 -8 0 -2 -9 14 -22 30 -23 55 -74 55 -110 0 -13 -10
-39 -22 -58 l-22 -35 -8 40 c-5 22 -11 49 -13 60 -3 11 -16 32 -29 47 l-25 27
27 9 27 10 -25 1 c-44 2 -69 13 -75 32 -4 12 -12 16 -23 12 -13 -4 -12 -2 3
10 17 13 20 13 23 1 2 -8 7 -14 11 -14z m-388 -14 c-7 -8 -10 -20 -6 -27 4 -6
2 -15 -4 -19 -7 -4 -13 -16 -14 -28 0 -11 -4 -19 -8 -16 -4 2 -7 -9 -7 -25 1
-28 -20 -61 -40 -61 -5 0 -9 -7 -9 -15 0 -8 4 -15 8 -15 4 0 14 7 23 15 27 28
43 18 50 -32 4 -29 2 -49 -4 -51 -5 -2 -10 -15 -10 -28 0 -21 5 -24 36 -24 32
0 35 -2 29 -21 -7 -20 -4 -21 21 -16 16 4 23 4 17 1 -7 -3 -13 -10 -13 -15 0
-6 7 -6 19 0 14 8 23 6 36 -9 10 -11 20 -18 23 -15 3 3 12 -5 20 -16 13 -19
12 -23 -8 -42 -18 -18 -22 -19 -17 -5 5 15 4 16 -13 5 -11 -6 -20 -19 -19 -27
0 -11 2 -12 6 -2 4 10 9 9 24 -4 13 -12 22 -14 31 -7 20 17 75 25 83 14 3 -6
-1 -11 -10 -11 -9 0 -14 -4 -11 -9 7 -11 76 -19 82 -9 3 4 11 5 18 2 8 -3 17
-1 20 4 3 6 -12 13 -36 17 -33 6 -38 9 -24 17 9 5 22 8 29 5 13 -4 26 5 68 47
16 15 29 23 29 16 0 -7 6 -6 16 4 19 19 28 21 19 4 -4 -7 3 -2 14 11 13 14 21
18 21 10 0 -23 -54 -128 -66 -128 -7 -1 -14 -8 -18 -16 -3 -8 -12 -15 -21 -15
-8 0 -15 -4 -15 -9 0 -5 -16 -15 -37 -23 -43 -18 -102 -5 -104 21 0 9 -3 11
-5 5 -5 -11 -135 14 -150 29 -4 4 -15 7 -25 7 -33 0 -95 94 -71 109 7 4 8 12
2 21 -6 8 -10 29 -10 45 0 23 -3 27 -10 15 -8 -12 -10 -9 -10 13 0 15 5 27 10
27 16 0 11 32 -7 46 -30 23 -44 17 -37 -13 7 -27 7 -27 -17 -12 -24 16 -41 79
-21 79 5 0 12 19 15 41 3 23 10 46 16 52 8 8 10 2 7 -21 -4 -33 0 -37 23 -23
10 7 11 13 1 30 -15 29 -4 60 33 93 32 28 50 30 28 4z m258 -17 c-8 -5 -22 -9
-31 -9 -10 0 -18 -4 -18 -10 0 -5 -5 -10 -10 -10 -26 0 15 35 42 37 21 0 26
-2 17 -8z m111 -4 c10 -12 9 -15 -8 -15 -29 0 -53 11 -46 21 8 14 40 11 54 -6z
m-192 -17 c-8 -13 -17 -33 -21 -46 l-5 -23 25 25 c15 15 31 22 41 19 13 -6 13
-7 1 -11 -18 -6 -49 -33 -49 -44 0 -11 37 -10 45 1 9 16 67 41 78 34 6 -3 7
-1 3 5 -4 7 -2 12 3 12 6 0 11 -5 11 -12 0 -6 2 -9 5 -6 3 3 3 12 0 21 -7 16
-21 17 -43 3 -13 -8 -30 -1 -21 8 15 15 58 12 72 -4 27 -32 48 -67 52 -89 6
-30 -7 -26 -27 9 -16 28 -19 29 -65 23 -50 -7 -103 -37 -103 -60 0 -19 18 -16
24 5 2 9 4 3 3 -15 -1 -19 7 -44 21 -62 21 -29 21 -31 4 -31 -11 0 -34 10 -53
23 -32 22 -34 26 -35 85 0 34 -5 67 -10 72 -6 6 -8 26 -6 45 4 31 7 35 34 35
29 0 30 -1 16 -22z m230 -23 c-3 -3 -9 2 -12 12 -6 14 -5 15 5 6 7 -7 10 -15
7 -18z m-15 -41 c-5 -15 -8 -14 -16 7 -17 42 -16 52 4 31 11 -13 16 -28 12
-38z m-336 30 c3 -10 1 -30 -4 -45 -9 -23 -9 -29 3 -29 8 0 14 -4 14 -10 0 -5
7 -10 15 -10 8 0 15 -7 15 -16 0 -9 -5 -12 -12 -8 -7 4 -5 -2 5 -13 9 -11 17
-33 17 -50 0 -17 7 -36 15 -43 20 -17 32 -5 15 15 -24 29 -3 25 28 -6 26 -26
37 -30 59 -25 16 4 36 8 46 9 20 2 24 37 3 37 -8 0 -17 7 -20 16 -5 13 -3 14
6 7 17 -13 91 -17 84 -4 -6 10 11 26 29 26 5 0 15 11 21 24 11 22 12 22 23 5
8 -15 10 -16 11 -3 0 8 -6 21 -12 28 -10 11 -10 13 0 7 6 -4 12 -3 12 2 0 15
-28 22 -34 9 -2 -7 -5 -4 -5 6 -1 9 6 17 14 17 8 0 15 5 15 11 0 29 30 -16 39
-59 9 -41 7 -52 -13 -92 -13 -25 -30 -45 -37 -45 -8 0 -21 -21 -29 -48 -16
-51 -49 -77 -105 -81 -27 -3 -85 11 -85 19 0 23 23 56 37 53 10 -1 23 0 28 3
6 4 27 12 48 18 20 7 37 17 37 22 0 5 5 9 11 9 5 0 7 -5 3 -11 -4 -7 -1 -10 7
-7 8 3 13 10 12 15 -1 5 12 18 28 28 16 11 33 34 39 50 l10 30 -28 -31 c-15
-17 -35 -36 -45 -44 -15 -11 -17 -11 -11 6 4 13 -1 11 -15 -8 -17 -21 -36 -29
-90 -39 -40 -7 -81 -8 -97 -4 -16 5 -33 8 -37 7 -4 -1 -10 4 -13 12 -3 8 -12
12 -20 9 -22 -8 -61 34 -68 73 -4 19 -11 34 -15 34 -11 0 -3 64 8 68 5 2 7 12
4 22 -3 11 0 20 6 20 5 0 8 7 5 15 -4 8 -1 15 5 15 7 0 14 -7 18 -16z m233
-76 c0 -13 -23 -5 -28 10 -2 7 2 10 12 6 9 -3 16 -11 16 -16z m-50 -50 c-1
-28 -2 -30 -11 -15 -6 10 -8 25 -5 33 9 24 16 16 16 -18z m60 8 c0 -3 -4 -8
-10 -11 -5 -3 -10 -1 -10 4 0 6 5 11 10 11 6 0 10 -2 10 -4z m220 -102 c0 -14
4 -22 10 -19 6 3 10 15 10 26 0 10 5 19 11 19 6 0 8 -7 5 -16 -3 -9 -6 -21 -6
-27 0 -22 -106 -54 -113 -34 -1 5 -11 1 -22 -9 -13 -13 -17 -14 -13 -4 2 8 16
21 31 28 14 7 36 25 49 41 26 32 38 31 38 -5z m-338 -76 c-9 -9 -15 -9 -24 0
-9 9 -7 12 12 12 19 0 21 -3 12 -12z m-262 -45 c1 -75 3 -83 13 -83 6 0 7 -3
4 -7 -4 -3 -2 -11 3 -18 5 -6 10 -32 10 -56 1 -57 -33 -221 -45 -217 -8 3 -65
151 -65 171 0 5 4 5 10 2 6 -4 8 7 6 27 -2 18 -8 34 -14 36 -12 4 -4 42 9 42
5 0 9 7 9 15 0 8 5 15 10 15 6 0 10 -15 10 -32 1 -35 7 -118 14 -183 3 -22 6
-53 7 -70 1 -20 4 -11 10 25 4 30 6 62 3 71 -2 9 3 35 11 59 16 46 12 70 -4
26 -13 -33 -16 -33 -17 4 -1 20 4 30 14 30 10 0 12 4 5 13 -24 33 -34 87 -23
122 6 19 9 39 5 45 -3 5 -2 10 4 10 5 0 10 -21 11 -47z m-43 -15 c-3 -8 -6 -5
-6 6 -1 11 2 17 5 13 3 -3 4 -12 1 -19z m683 -17 c0 -19 -29 -94 -30 -77 0 5
-7 3 -15 -4 -22 -18 -31 -5 -11 15 20 21 20 26 0 18 -14 -5 -15 -3 -4 18 29
56 60 71 60 30z m-709 -18 c-12 -20 -14 -14 -5 12 4 9 9 14 11 11 3 -2 0 -13
-6 -23z m836 -100 c-2 -19 -13 -33 -33 -43 -16 -8 -30 -18 -32 -22 -2 -5 -10
-8 -18 -8 -8 0 -14 -4 -14 -10 0 -5 -6 -10 -14 -10 -8 0 -16 -5 -18 -12 -2 -6
-10 -8 -16 -4 -14 9 -16 36 -2 36 5 0 7 -8 3 -17 -3 -10 -4 -16 -2 -13 35 41
43 54 27 41 -11 -8 -18 -9 -18 -3 0 14 35 34 44 25 3 -3 6 -1 6 5 0 5 3 19 6
29 5 17 5 17 -9 0 -9 -11 -18 -14 -21 -8 -11 17 9 24 107 40 4 0 6 -11 4 -26z
m-187 -3 c-8 -5 -22 -9 -30 -9 -10 0 -8 3 5 9 27 12 43 12 25 0z m54 -32 c-15
-26 -49 -58 -61 -58 -21 0 -15 18 10 31 12 7 26 18 30 25 4 8 13 14 18 14 6 0
7 -6 3 -12z m-140 -24 c7 -19 -60 -94 -85 -94 -21 0 -31 24 -17 38 8 8 8 16
-2 27 -14 17 -16 16 28 20 19 1 39 8 45 14 15 15 24 14 31 -5z m-202 -14 c-2
-11 0 -11 12 -1 10 9 16 9 21 1 4 -6 -1 -17 -10 -24 -16 -12 -16 -13 -1 -19
25 -10 19 -46 -14 -78 -16 -16 -29 -32 -30 -34 0 -3 0 -9 0 -15 0 -5 -13 -10
-29 -10 -17 0 -32 -4 -35 -9 -8 -12 -70 -23 -90 -15 -9 3 -14 10 -11 14 3 4
-3 7 -13 6 -14 -1 -16 6 -14 34 3 35 30 102 45 108 4 2 5 8 2 12 -3 5 0 12 6
16 8 4 9 3 5 -4 -12 -19 9 -14 28 7 18 20 66 25 66 7 0 -8 2 -8 8 0 16 24 60
27 54 4z m446 -30 c-14 -31 -20 -34 -53 -20 -18 8 -18 9 -2 9 10 1 16 5 13 10
-4 5 6 18 21 29 33 24 40 14 21 -28z m-128 -20 c0 -5 -11 -10 -25 -10 -14 0
-25 5 -25 10 0 6 11 10 25 10 14 0 25 -4 25 -10z m22 -56 c6 -13 9 -25 7 -27
-2 -1 -24 -20 -48 -42 -24 -22 -41 -34 -37 -27 5 8 0 12 -13 12 -25 0 -29 41
-7 59 11 10 17 7 30 -11 20 -28 20 -12 1 22 -22 39 -18 46 21 42 25 -3 39 -11
46 -28z m-132 -4 c0 -12 -7 -32 -16 -45 -9 -13 -13 -29 -9 -35 4 -6 -13 -10
-49 -10 -56 0 -85 15 -44 23 17 3 14 5 -9 6 -58 2 -34 36 32 46 6 1 26 9 45
18 46 21 50 21 50 -3z m189 3 c-3 -19 2 -33 11 -33 5 0 6 8 3 18 -6 15 -5 16
12 2 17 -14 18 -13 12 3 -3 9 -2 17 2 17 13 0 21 -27 15 -45 -4 -8 -2 -15 4
-15 5 0 13 -7 16 -16 5 -12 2 -15 -11 -9 -10 3 -22 7 -28 8 -30 6 -72 77 -45
77 6 0 9 -3 9 -7z m-826 -33 c3 -11 1 -18 -4 -14 -5 3 -9 12 -9 20 0 20 7 17
13 -6z m-38 -20 c3 -5 1 -10 -4 -10 -6 0 -11 5 -11 10 0 6 2 10 4 10 3 0 8 -4
11 -10z m52 -32 c-3 -8 -6 -5 -6 6 -1 11 2 17 5 13 3 -3 4 -12 1 -19z m20 0
c-3 -8 -6 -5 -6 6 -1 11 2 17 5 13 3 -3 4 -12 1 -19z m803 -18 c6 -11 8 -25 5
-30 -9 -14 9 -12 24 3 7 7 7 1 -3 -17 -8 -16 -13 -33 -10 -38 3 -4 -6 -8 -20
-8 -49 0 -89 59 -50 74 11 4 18 -3 26 -25 7 -19 14 -27 20 -21 6 6 4 21 -6 40
-19 36 -19 42 -6 42 5 0 14 -9 20 -20z m-302 -42 c75 12 135 0 175 -33 20 -17
38 -37 42 -46 3 -10 13 -15 23 -12 36 9 59 -62 50 -152 -1 -16 -18 -21 -18 -5
0 15 -108 92 -120 85 -5 -3 -13 1 -16 9 -3 9 -10 16 -16 16 -5 0 -25 16 -45
35 -37 36 -42 37 -153 37 -100 0 -200 -23 -200 -47 0 -14 -97 -48 -112 -39 -6
4 -8 3 -4 -4 7 -12 -51 -51 -85 -54 -36 -4 -38 29 -1 45 16 6 27 17 25 23 -5
14 53 64 73 64 8 0 14 4 14 8 0 9 59 32 84 32 13 0 16 -5 11 -20 -6 -18 -3
-20 22 -17 15 3 27 10 25 16 -4 18 36 65 61 72 12 3 44 0 70 -7 29 -8 67 -10
95 -6z m-563 -43 c33 -34 49 -85 25 -85 -5 0 -7 8 -3 18 4 11 0 9 -13 -6 l-19
-24 -20 22 c-19 21 -19 21 1 14 12 -5 7 5 -16 27 -31 30 -33 34 -15 38 16 3
15 5 -10 16 l-30 13 32 1 c24 1 41 -8 68 -34z m940 17 c-3 -3 -11 0 -18 7 -9
10 -8 11 6 5 10 -3 15 -9 12 -12z m-405 -72 c10 0 32 -11 48 -25 16 -13 33
-21 37 -17 5 4 6 2 2 -3 -10 -20 18 -42 63 -49 50 -8 72 -23 114 -81 16 -22
40 -50 52 -63 12 -12 25 -37 29 -55 10 -50 16 -197 7 -197 -5 0 -16 -15 -25
-34 -18 -38 -147 -135 -133 -100 15 36 35 129 36 162 0 22 8 41 25 56 22 20
25 31 24 87 -1 35 -3 55 -6 44 -8 -34 -35 -85 -44 -85 -5 0 -9 18 -9 40 0 104
-97 200 -223 220 -51 8 -114 8 -124 -1 -2 -1 -6 -2 -10 -4 -26 -7 -83 -36 -88
-45 -3 -5 -11 -10 -16 -10 -6 0 0 14 12 31 l22 32 -39 -7 c-47 -9 -54 -13 -54
-31 0 -7 -4 -15 -8 -17 -5 -1 -15 -16 -23 -33 -10 -21 -22 -30 -37 -29 -16 0
-21 -4 -17 -13 3 -10 -1 -13 -12 -11 -40 7 -41 93 -2 93 8 0 24 10 37 23 12
12 32 22 45 22 12 0 28 9 35 20 7 11 21 20 31 20 11 0 23 5 26 10 18 29 150
65 193 54 8 -2 22 -4 32 -4z m-497 -55 c-3 -9 -8 -14 -10 -11 -3 3 -2 9 2 15
9 16 15 13 8 -4z m619 -138 c26 -28 48 -56 48 -63 0 -24 -18 -25 -34 -2 -9 12
-16 18 -16 13 0 -5 -7 1 -16 13 -9 13 -13 26 -10 29 3 4 6 2 6 -4 0 -6 7 -13
15 -17 27 -10 16 6 -37 56 -30 28 -42 44 -29 38 14 -7 46 -35 73 -63z m-564
22 c-8 -22 -7 -37 1 -56 6 -13 9 -29 6 -34 -4 -5 -1 -9 5 -9 5 0 10 -12 10
-27 0 -16 0 -48 0 -72 0 -33 -5 -48 -20 -58 -25 -17 -27 -61 -4 -59 9 0 24
-12 34 -29 9 -16 28 -36 43 -43 30 -14 32 -23 16 -54 -9 -17 -6 -24 23 -49 31
-28 63 -46 81 -47 4 0 19 -7 32 -16 13 -9 31 -13 40 -10 11 4 14 2 10 -9 -8
-19 25 -32 39 -16 8 9 7 10 -6 6 -10 -4 -18 -2 -18 3 0 12 37 13 44 1 10 -16
-32 -57 -72 -69 -52 -16 -70 -15 -133 5 -69 22 -99 41 -92 59 3 8 0 14 -6 14
-6 0 -22 22 -36 50 -27 54 -30 64 -15 55 6 -3 10 3 10 14 0 12 -6 21 -13 21
-16 0 -80 66 -91 95 -36 89 9 279 79 335 21 17 39 30 41 30 2 0 -2 -14 -8 -31z
m399 17 c-2 -6 -21 -14 -42 -18 -21 -5 -45 -14 -54 -21 -12 -9 -13 -9 -7 1 13
21 -10 13 -34 -13 -27 -28 -50 -33 -50 -9 0 8 5 12 10 9 6 -4 19 3 29 16 9 12
33 27 52 34 42 15 101 16 96 1z m459 -23 c44 -66 50 -86 55 -208 2 -51 0 -55
-26 -55 -14 0 -25 -5 -25 -11 0 -5 -4 -8 -9 -5 -4 3 -11 42 -14 87 -4 68 -10
89 -36 131 -37 59 -34 88 9 88 19 0 33 -8 46 -27z m-676 11 c0 -7 -41 -67 -51
-74 -10 -7 -8 -59 2 -66 5 -3 9 8 9 24 0 16 6 35 13 41 11 9 12 1 4 -43 -9
-49 -8 -56 12 -77 11 -12 21 -26 21 -31 0 -4 5 -7 12 -5 7 1 12 -5 13 -13 0
-8 8 -14 17 -14 10 1 14 -4 11 -12 -7 -20 -19 -17 -43 8 -11 12 -20 16 -20 10
0 -20 37 -46 82 -57 62 -15 60 -33 -4 -27 -73 6 -148 50 -148 86 0 8 -4 17 -9
21 -6 3 -17 19 -25 36 -12 25 -13 30 -2 26 10 -4 13 2 12 19 0 15 -6 22 -13
19 -7 -2 -13 3 -13 12 0 9 3 13 6 10 9 -8 44 11 44 24 0 6 -6 7 -12 3 -9 -5
-9 -2 1 9 7 9 19 17 25 17 6 0 17 14 23 30 10 26 33 43 33 24z m295 -16 c14
-6 25 -18 25 -27 0 -9 11 -29 25 -45 25 -29 34 -76 15 -76 -5 0 -10 -10 -10
-22 0 -13 -7 -31 -14 -41 -13 -16 -14 -10 -10 48 3 56 0 74 -18 106 -18 32
-27 39 -52 38 -28 0 -29 -1 -11 -10 31 -16 57 -57 50 -79 -4 -11 -11 -18 -16
-14 -5 3 -7 9 -4 13 2 5 -6 21 -19 36 -21 24 -28 26 -65 20 -22 -4 -41 -11
-41 -17 0 -16 -29 -40 -40 -33 -26 16 13 64 48 57 6 -2 12 2 12 7 0 11 65 48
87 50 7 1 24 -4 38 -11z m-602 -20 c-4 -7 -6 -23 -5 -35 2 -12 -3 -37 -11 -55
-31 -69 -36 -95 -33 -158 3 -64 21 -120 38 -120 4 0 8 -7 8 -16 0 -8 14 -27
31 -41 16 -14 28 -32 25 -39 -3 -8 -1 -14 4 -14 10 0 34 -67 32 -93 0 -9 4
-15 9 -11 6 3 17 -3 25 -15 8 -12 23 -21 33 -21 10 0 35 -15 56 -33 35 -30 37
-35 25 -56 -6 -13 -7 -21 -2 -17 6 3 12 -2 14 -11 3 -13 10 -6 28 25 20 36 28
42 57 42 25 0 31 -4 27 -15 -4 -8 -1 -15 5 -15 6 0 11 5 11 11 0 6 5 7 13 2 6
-4 21 -8 32 -9 11 -1 45 -13 75 -27 40 -18 59 -23 72 -16 10 6 23 7 28 4 6 -3
10 -2 10 4 0 6 26 23 58 38 31 15 63 35 70 43 14 15 13 10 -4 -80 -8 -36 -32
-60 -90 -86 -29 -13 -54 -27 -55 -33 -2 -5 -32 -12 -67 -15 -60 -5 -63 -4 -56
16 4 14 2 18 -5 14 -6 -4 -11 -14 -11 -22 0 -8 -4 -14 -10 -14 -5 0 -10 -7
-10 -15 0 -8 -4 -15 -10 -15 -13 0 -13 6 1 33 10 21 9 21 -10 -2 -12 -13 -21
-19 -21 -13 0 5 -16 13 -35 16 -19 4 -38 12 -42 19 -20 32 -66 49 -130 48 -93
0 -132 25 -197 127 -42 66 -42 85 -4 105 32 17 32 17 5 14 -20 -3 -33 2 -46
19 -10 13 -21 21 -24 17 -3 -3 -14 11 -24 31 -15 32 -15 38 -3 46 10 7 11 10
3 10 -7 0 -13 4 -13 9 0 8 83 -3 101 -14 16 -11 9 7 -8 21 -10 7 -30 14 -45
14 -51 0 -81 84 -57 156 7 22 14 33 16 27 3 -7 8 -13 12 -13 11 0 1 49 -12 57
-7 4 -8 -1 -3 -13 6 -15 5 -17 -6 -6 -10 10 -10 17 1 34 8 12 16 37 18 56 5
37 20 56 73 89 41 26 44 27 33 11z m343 -115 c-5 -13 -9 -14 -19 -4 -9 9 -9
14 3 21 11 7 11 10 2 10 -7 0 -10 5 -6 11 10 16 27 -18 20 -38z m199 37 c7
-12 -2 -12 -30 0 -19 8 -19 9 2 9 12 1 25 -3 28 -9z m173 -2 c14 -14 16 -32 3
-24 -5 3 -11 -9 -14 -27 -3 -17 -15 -57 -26 -87 -18 -49 -28 -60 -78 -90 -47
-29 -72 -37 -138 -43 -44 -5 -100 -8 -125 -7 -56 1 -123 33 -150 70 -23 32
-28 105 -7 97 6 -2 11 -11 11 -20 -1 -9 2 -15 6 -12 4 3 13 -2 20 -10 11 -13
10 -15 -6 -10 -10 4 -7 -1 9 -10 15 -8 27 -19 27 -24 0 -5 15 -14 33 -21 17
-7 46 -19 64 -26 40 -18 82 -18 89 -1 3 8 17 14 32 15 66 2 186 76 195 121 3
16 12 35 20 43 8 7 13 28 13 46 -1 35 3 39 22 20z m-238 -8 c-20 -13 -33 -13
-25 0 3 6 14 10 23 10 15 0 15 -2 2 -10z m40 -14 c0 -2 -8 -10 -17 -17 -16
-13 -17 -12 -4 4 13 16 21 21 21 13z m-120 -33 c0 -21 -3 -24 -9 -14 -5 8 -7
20 -4 28 8 21 13 15 13 -14z m50 12 c-9 -11 -9 -22 -1 -46 16 -47 12 -49 -9
-4 -18 39 -13 65 12 65 6 0 5 -6 -2 -15z m127 -22 c-3 -10 -5 -4 -5 12 0 17 2
24 5 18 2 -7 2 -21 0 -30z m-227 -14 c0 -6 -4 -7 -10 -4 -5 3 -10 11 -10 16 0
6 5 7 10 4 6 -3 10 -11 10 -16z m418 -48 c1 -39 -2 -72 -7 -75 -5 -4 -12 -25
-16 -49 -4 -23 -14 -54 -21 -69 -15 -29 -64 -68 -86 -68 -8 0 -31 -9 -51 -19
-50 -25 -140 -26 -220 -1 -83 26 -107 44 -107 81 0 17 4 28 9 25 5 -3 28 -8
52 -11 24 -3 53 -7 64 -9 11 -2 32 3 48 11 15 7 27 11 27 8 0 -3 16 2 36 10
32 13 35 13 30 0 -7 -18 7 -19 37 -3 85 45 197 133 143 112 -10 -4 -8 6 7 38
12 24 25 45 29 46 4 2 8 12 8 23 0 10 4 19 8 19 5 0 9 -31 10 -69z m-218 34
c-7 -9 -15 -13 -19 -10 -3 3 1 10 9 15 21 14 24 12 10 -5z m-118 -25 c10 -17
28 -35 40 -40 15 -6 17 -9 7 -9 -22 -1 -65 34 -72 59 -8 30 5 24 25 -10z m178
-3 c0 -2 -10 -12 -21 -23 -22 -19 -22 -19 -8 4 12 19 29 30 29 19z m482 -128
c28 -53 24 -126 -10 -180 -40 -63 -96 -103 -133 -95 -16 3 -29 1 -29 -4 0 -6
5 -10 10 -10 18 0 11 -20 -9 -28 -11 -4 -21 -11 -22 -17 -3 -20 -37 -55 -62
-64 -22 -9 -26 -7 -37 19 -7 17 -10 44 -6 63 5 29 13 36 46 47 22 7 40 16 40
19 0 3 13 20 29 37 35 37 45 66 42 125 -2 57 13 99 36 99 10 0 29 7 43 14 34
19 42 16 62 -25z m-182 -95 c0 -42 -29 -92 -74 -124 -22 -16 -47 -34 -53 -40
-9 -7 -13 -7 -13 0 0 16 -37 12 -44 -5 -3 -9 -20 -23 -38 -31 -18 -8 -49 -26
-67 -40 -30 -21 -42 -24 -80 -18 -26 4 -50 9 -55 12 -7 4 -5 50 5 92 2 8 31
22 64 31 62 17 160 64 171 80 3 5 10 7 15 4 5 -4 9 -2 9 4 0 10 76 37 93 33 4
-1 18 4 30 13 30 21 37 19 37 -11z m-370 -108 c0 -2 -7 -7 -16 -10 -8 -3 -12
-2 -9 4 6 10 25 14 25 6z m450 -135 c0 -17 -18 -21 -24 -6 -3 9 0 15 9 15 8 0
15 -4 15 -9z m56 -42 c3 -6 17 -9 30 -6 13 2 21 0 18 -4 -3 -5 11 -9 30 -9 34
0 34 -1 26 -31 -5 -17 -9 -34 -8 -38 1 -3 -8 -26 -21 -50 l-23 -43 -54 4 c-31
3 -49 1 -42 -3 10 -7 11 -9 0 -9 -7 0 -15 6 -18 14 -7 19 -54 0 -54 -22 0 -15
0 -15 95 4 23 4 26 3 15 -5 -8 -6 -25 -11 -38 -11 -13 0 -34 -11 -46 -24 l-24
-23 -11 25 c-12 25 -6 62 10 62 5 0 8 6 7 12 -2 9 7 12 26 9 16 -1 32 2 35 8
4 6 24 12 45 15 21 3 41 8 45 12 3 4 -2 4 -11 1 -12 -4 -18 -1 -18 8 0 8 6 15
14 15 17 0 66 38 66 52 0 7 -4 7 -12 1 -7 -6 -25 -13 -40 -17 -14 -3 -34 -9
-44 -13 -12 -4 -15 -3 -10 6 5 7 18 16 30 21 17 7 17 9 4 9 -10 1 -30 -12 -44
-29 -15 -16 -30 -27 -34 -25 -4 3 -13 -2 -20 -10 -18 -22 -27 -19 -35 12 -5
22 -1 32 20 50 15 13 31 21 36 18 5 -4 9 1 9 9 0 18 35 22 46 5z m-1113 -39
c5 -4 7 -17 5 -29 -3 -21 -4 -20 -40 9 -21 17 -38 35 -38 40 0 9 59 -7 73 -20z
m-52 -32 c16 -18 29 -36 29 -40 0 -5 4 -7 8 -5 5 1 22 -12 38 -29 23 -25 27
-34 17 -43 -10 -9 -13 -8 -13 5 0 9 -9 18 -20 21 -15 4 -19 11 -15 27 2 11 2
16 -1 9 -3 -7 -13 -9 -22 -6 -15 6 -14 3 2 -15 19 -22 19 -22 0 -22 -10 0 -28
7 -39 16 -16 12 -17 16 -6 23 9 6 10 11 3 15 -6 4 -9 13 -6 21 3 7 1 23 -6 34
-16 30 -3 26 31 -11z m985 7 c-3 -8 -1 -15 4 -15 6 0 10 -5 10 -11 0 -6 -7 -8
-16 -5 -10 4 -14 2 -11 -6 2 -7 10 -12 16 -10 20 4 12 -18 -15 -43 -30 -28
-40 -30 -50 -13 -4 7 -3 8 4 4 17 -10 32 2 26 19 -4 8 -9 13 -13 10 -15 -9 2
60 17 73 21 16 35 15 28 -3z m-887 -12 c11 -9 17 -21 14 -27 -4 -7 -1 -6 8 1
12 9 14 3 17 -42 1 -30 -2 -57 -8 -60 -5 -3 -7 0 -4 9 7 17 -24 87 -43 99 -12
8 -19 37 -8 37 3 0 14 -8 24 -17z m753 -55 c-7 -7 -12 -8 -12 -2 0 14 12 26
19 19 2 -3 -1 -11 -7 -17z m-502 -27 c0 -5 -12 -24 -27 -42 -16 -18 -27 -41
-25 -51 2 -10 -2 -18 -8 -18 -7 0 -9 7 -6 16 4 11 1 14 -12 12 -13 -3 -16 -12
-14 -39 3 -36 -14 -61 -44 -65 -17 -3 -17 -5 1 45 8 23 10 39 5 36 -12 -7 -28
-61 -34 -113 -2 -24 -7 -46 -10 -49 -14 -14 -17 33 -6 98 11 62 18 78 52 115
48 52 60 55 51 12 -4 -22 -3 -29 5 -24 7 4 12 16 12 26 0 10 10 26 22 34 25
18 38 20 38 7z m84 -57 c7 -27 -3 -84 -15 -84 -5 0 -9 -11 -9 -25 0 -13 -13
-40 -30 -58 -16 -19 -30 -40 -30 -46 0 -6 -7 -11 -15 -11 -8 0 -19 -8 -24 -18
-5 -10 -28 -26 -50 -34 -35 -14 -41 -14 -41 -2 0 8 -4 14 -10 14 -5 0 -2 16 7
35 9 19 21 35 26 35 5 0 4 -7 -3 -15 -8 -10 -9 -15 -2 -15 15 0 35 37 23 42
-5 2 -2 10 7 18 14 13 15 12 10 -2 -4 -9 -4 -18 -1 -21 6 -7 43 30 43 43 0 6
4 10 10 10 5 0 7 13 4 30 -4 19 -2 30 5 30 6 0 11 7 11 16 0 8 -5 12 -11 8 -8
-4 -8 0 0 15 14 25 23 28 14 4 -4 -10 -2 -14 4 -10 6 4 8 26 5 52 l-5 46 36
-17 c20 -10 38 -27 41 -40z m396 31 c-29 -31 -19 -44 41 -51 24 -2 50 -7 57
-9 6 -2 12 0 12 6 0 6 7 4 15 -5 8 -8 15 -22 15 -31 0 -9 5 -13 10 -10 15 9
40 -14 40 -36 0 -14 7 -19 25 -19 34 0 62 -34 70 -87 4 -25 9 -53 12 -62 4
-14 3 -14 -6 -1 -9 13 -11 12 -11 -3 0 -15 -5 -13 -25 11 -14 17 -25 35 -25
41 0 6 -10 31 -22 55 -21 43 -33 52 -93 63 -11 2 -24 8 -29 13 -4 4 -15 6 -22
3 -17 -6 -74 16 -74 28 0 5 8 9 17 9 9 0 14 3 10 6 -13 14 -132 12 -165 -2
-19 -8 -45 -14 -57 -14 -32 0 -52 -26 -37 -50 9 -14 7 -21 -9 -36 -14 -12 -18
-25 -14 -41 4 -16 1 -23 -10 -23 -8 0 -15 -4 -15 -10 0 -15 -33 -50 -46 -50
-7 0 -14 -7 -18 -15 -3 -8 -13 -15 -22 -15 -12 0 -15 6 -10 25 5 20 3 25 -13
25 -32 0 -33 15 -5 69 26 50 94 115 94 90 0 -7 6 -5 14 6 8 11 19 16 30 12 9
-4 16 -3 16 1 0 4 14 16 30 25 17 10 30 26 30 35 0 13 2 14 8 4 5 -7 16 -10
26 -6 14 5 15 9 4 16 -10 7 -9 8 5 4 23 -7 78 14 57 22 -17 7 50 30 89 31 l24
1 -23 -25z m-798 0 c22 -5 66 -36 72 -52 3 -7 -3 -11 -17 -9 -38 4 -77 25 -84
43 -4 10 -11 22 -17 26 -6 5 -2 6 9 2 11 -4 28 -8 37 -10z m838 -21 c0 -8 -4
-12 -10 -9 -5 3 -10 10 -10 16 0 5 5 9 10 9 6 0 10 -7 10 -16z m-717 -19 c-3
-9 -8 -14 -10 -11 -3 3 -2 9 2 15 9 16 15 13 8 -4z m982 -35 c-3 -5 -1 -10 6
-10 7 0 37 -12 66 -26 53 -25 54 -26 37 -45 -17 -19 -54 -26 -54 -10 0 5 -12
12 -27 16 -19 4 -23 9 -14 15 10 6 9 12 -8 29 -19 19 -21 41 -5 41 3 0 2 -4
-1 -10z m-35 -20 c0 -5 -4 -10 -10 -10 -5 0 -10 5 -10 10 0 6 5 10 10 10 6 0
10 -4 10 -10z m-304 -29 c36 -33 65 -45 75 -30 6 10 16 9 51 -6 79 -34 113
-85 106 -158 -2 -27 -37 -87 -49 -87 -2 0 -5 28 -7 62 -5 110 -48 159 -140
161 -29 0 -51 6 -58 15 -13 18 -35 12 -102 -33 -30 -19 -55 -35 -56 -35 -1 0
-2 9 -3 20 -1 10 9 29 22 42 14 13 25 28 25 35 0 35 103 46 136 14z m-166 -1
c0 -5 -5 -10 -11 -10 -5 0 -7 5 -4 10 3 6 8 10 11 10 2 0 4 -4 4 -10z m-311
-31 c-16 -10 -23 -4 -14 10 3 6 11 8 17 5 6 -4 5 -9 -3 -15z m-79 -46 c-12 -8
-25 -25 -30 -37 -7 -16 -9 -17 -9 -4 -1 22 52 85 57 69 2 -7 -6 -19 -18 -28z
m1018 5 c-6 -18 -22 -20 -43 -3 -19 14 -18 14 13 15 22 0 32 -4 30 -12z
m-1184 -47 c16 -17 27 -33 23 -37 -3 -4 -15 4 -26 17 -11 13 -20 20 -21 15 0
-5 -8 -2 -17 6 -10 9 -31 21 -48 27 -29 11 -28 11 14 7 32 -3 52 -13 75 -35z
m674 12 c0 -13 -7 -27 -14 -30 -8 -3 -14 -10 -14 -17 0 -6 -12 -24 -26 -39
-18 -19 -23 -34 -19 -49 6 -16 9 -17 15 -7 5 7 6 17 3 23 -3 5 -1 6 5 2 7 -4
12 -13 12 -21 0 -7 11 -27 25 -43 l24 -29 -27 5 c-15 2 -37 14 -49 25 -13 11
-23 17 -23 13 0 -5 -7 -3 -15 4 -8 7 -15 29 -15 49 0 24 -3 31 -9 22 -7 -11
-9 -11 -13 0 -12 32 39 88 79 89 14 0 21 5 18 13 -3 7 4 13 19 13 19 1 24 -3
24 -23z m137 7 c18 -20 18 -21 -5 -12 -13 5 -26 14 -28 20 -6 19 13 14 33 -8z
m305 10 c0 -5 -4 -10 -10 -10 -5 0 -10 5 -10 10 0 6 5 10 10 10 6 0 10 -4 10
-10z m-1161 -45 c29 -19 56 -35 61 -35 4 0 10 -6 13 -14 4 -11 -2 -12 -31 -4
-20 5 -47 12 -59 15 -28 7 -67 48 -58 62 9 16 16 14 74 -24z m827 15 c1 0 14
-21 29 -46 19 -32 27 -60 27 -92 0 -41 -5 -50 -35 -77 -66 -58 -80 -65 -127
-65 -52 0 -163 33 -168 49 -2 6 -11 11 -19 11 -9 0 -13 6 -9 15 3 8 0 15 -7
15 -9 0 -9 3 1 9 10 6 11 13 1 34 -9 20 -9 36 2 71 15 52 35 56 31 7 -3 -39
20 -86 62 -127 29 -27 38 -30 89 -29 31 1 54 -1 52 -5 -2 -3 0 -12 6 -20 9
-16 10 -15 13 30 1 8 9 14 19 14 34 -3 91 97 65 112 -7 4 -10 4 -6 -1 7 -7
-27 -85 -38 -85 -2 0 1 10 7 22 24 45 29 91 12 110 -17 19 -38 25 -28 8 3 -5
-1 -10 -9 -10 -15 0 -20 -11 -17 -37 1 -7 -3 -13 -9 -13 -6 0 -8 4 -5 10 3 6
-1 7 -10 3 -12 -4 -13 -8 -4 -13 7 -5 9 -15 4 -26 -8 -18 -8 -18 -12 -1 -4 14
-8 16 -19 6 -11 -9 -14 -7 -14 10 0 15 9 25 30 32 34 12 40 29 10 29 -14 0
-18 5 -13 18 4 9 13 21 20 25 7 5 11 12 8 17 -3 5 9 5 27 -1 18 -5 34 -9 34
-9z m77 -43 c-3 -4 -6 -7 -7 -5 -1 2 -8 12 -16 22 -14 18 -14 18 7 6 12 -8 19
-18 16 -23z m302 -5 c-3 -3 -11 0 -18 7 -9 10 -8 11 6 5 10 -3 15 -9 12 -12z
m-1068 -24 c-3 -7 -5 -2 -5 12 0 14 2 19 5 13 2 -7 2 -19 0 -25z m583 18 c0
-3 -4 -8 -10 -11 -5 -3 -10 -1 -10 4 0 6 5 11 10 11 6 0 10 -2 10 -4z m-695
-39 c38 -19 55 -34 55 -49 0 -15 -24 -8 -56 17 -18 14 -35 25 -38 25 -3 0 -15
9 -27 21 l-21 21 24 -7 c12 -4 41 -17 63 -28z m1041 -45 c6 -50 -10 -116 -39
-156 -18 -25 -22 -27 -32 -13 -7 9 -15 14 -19 10 -9 -9 5 60 15 71 4 5 5 22 2
38 -3 17 -1 33 5 37 10 6 19 41 21 81 2 31 42 -27 47 -68z m174 70 c0 -5 -18
-16 -39 -24 -38 -15 -39 -15 -29 2 7 10 20 17 30 15 9 -2 20 0 23 6 8 11 15
12 15 1z m-805 -28 c33 12 43 -3 38 -62 -3 -31 -5 -61 -6 -65 -1 -5 7 -14 18
-20 11 -7 22 -13 24 -14 2 -2 -3 -11 -12 -21 -17 -19 -8 -50 12 -38 6 4 11 2
11 -3 0 -6 9 -11 19 -11 10 0 21 -7 25 -15 3 -8 0 -14 -6 -12 -7 1 -14 -6 -16
-17 -2 -10 0 -16 6 -12 15 9 42 -4 42 -21 0 -13 3 -13 15 -3 11 9 18 10 28 1
8 -6 17 -8 20 -5 4 4 27 1 52 -6 49 -14 50 -20 22 -80 -21 -45 -107 -115 -114
-94 -2 6 -15 9 -28 6 -17 -3 -25 0 -25 10 0 7 -14 22 -30 32 -25 14 -29 22
-24 39 6 18 4 20 -7 10 -16 -13 -33 2 -79 65 -19 25 -21 35 -12 44 17 17 15
28 -7 28 -29 0 -73 60 -67 92 3 17 0 28 -9 32 -16 6 -18 55 -6 110 7 33 31 48
31 19 0 -19 44 -73 59 -73 13 0 1 43 -15 56 -8 6 -11 19 -8 28 5 13 9 14 20 5
8 -6 21 -9 29 -5z m-202 -59 c4 -32 3 -43 -3 -30 -8 19 -14 93 -6 84 2 -2 6
-26 9 -54z m692 -15 c-4 -11 -11 -20 -17 -20 -5 0 -7 7 -4 16 3 9 6 25 6 37 1
20 2 20 11 4 6 -9 7 -26 4 -37z m194 33 c42 -42 62 -91 62 -152 1 -63 -6 -85
-22 -76 -5 3 -6 -1 -3 -10 8 -19 -22 -44 -52 -45 -13 0 -24 8 -27 20 -3 11
-10 20 -17 20 -6 0 -8 -4 -5 -10 3 -5 1 -10 -4 -10 -19 0 -12 -18 9 -25 11 -3
20 -10 20 -15 0 -17 -66 -102 -90 -115 -64 -36 -99 -46 -117 -37 -20 11 -103
27 -117 23 -5 -1 -4 4 2 11 6 8 14 33 18 56 6 36 9 40 25 32 22 -12 32 -13 25
-1 -4 5 0 12 6 15 10 5 10 7 1 12 -16 7 -17 24 -3 24 6 0 15 -10 20 -22 5 -13
9 -17 9 -10 1 6 0 14 -1 17 -2 3 13 15 32 26 19 12 38 26 41 32 4 5 11 7 17 4
5 -4 32 5 61 18 28 14 55 25 61 25 5 0 10 12 10 26 0 14 5 34 10 45 15 27 20
112 8 127 -16 18 0 15 21 -5z m128 -19 c2 -5 -8 -9 -21 -9 -19 0 -22 3 -14 13
12 14 30 12 35 -4z m-482 -14 c8 -13 -15 -13 -35 0 -12 8 -11 10 7 10 12 0 25
-4 28 -10z m145 -49 c0 -5 9 -11 20 -14 26 -7 25 -26 -4 -70 -13 -19 -21 -38
-18 -42 4 -3 -1 -3 -10 0 -8 3 -22 0 -30 -8 -20 -20 -58 -31 -58 -17 0 7 -8 2
-18 -10 -16 -20 -21 -21 -67 -10 -59 14 -61 15 -100 38 -16 10 -32 27 -33 36
-3 15 1 17 25 12 79 -15 144 -18 158 -6 10 9 15 9 15 1 0 -6 5 -11 11 -11 5 0
8 4 5 9 -3 5 2 15 11 22 15 12 16 12 10 -3 -3 -10 -3 -18 0 -18 10 0 43 32 43
41 0 18 20 59 30 59 5 0 10 -4 10 -9z m-760 -31 c27 -21 45 -26 35 -10 -3 6
-4 10 -2 10 3 0 15 -16 26 -36 l21 -35 -22 7 c-13 4 -29 16 -37 26 -7 11 -27
28 -45 39 -17 10 -24 19 -16 19 8 0 26 -9 40 -20z m-153 -54 c18 -3 26 -14 30
-37 3 -18 1 -18 -20 5 -13 14 -35 30 -48 36 l-24 11 25 -6 c14 -3 30 -7 37 -9z
m-72 -6 c3 -5 -2 -10 -12 -11 -16 0 -16 -1 2 -9 30 -13 35 -12 28 6 -5 13 -3
15 13 6 26 -14 60 -52 46 -52 -6 0 -14 5 -17 10 -3 6 -18 10 -32 10 -26 0 -26
0 -7 -19 10 -10 22 -17 25 -15 4 2 9 -3 13 -11 7 -19 1 -19 -30 1 -13 9 -27
14 -31 10 -3 -3 -15 8 -25 25 -15 24 -16 34 -7 45 14 16 25 18 34 4z m1060
-10 c-3 -5 -10 -10 -16 -10 -5 0 -9 5 -9 10 0 6 7 10 16 10 8 0 12 -4 9 -10z
m-912 -54 c3 3 3 -4 0 -16 -5 -19 -7 -20 -15 -6 -5 9 -17 16 -26 16 -14 0 -15
2 -2 10 9 5 19 5 26 0 6 -6 13 -7 17 -4z m87 -21 c-7 -8 -16 -15 -21 -15 -5 0
-6 7 -3 15 4 8 13 15 21 15 13 0 13 -3 3 -15z m160 -5 c23 -12 41 -43 45 -77
2 -19 -1 -23 -14 -17 -31 13 -110 12 -128 -1 -16 -12 -12 -14 32 -19 28 -4 64
-9 80 -11 34 -6 94 -55 96 -79 2 -19 3 -26 12 -46 20 -50 10 -105 -25 -141
l-33 -32 -8 44 c-4 24 -5 70 -2 102 3 35 1 66 -6 80 -14 26 -30 38 -42 30 -5
-3 -5 -8 1 -12 6 -4 14 -27 17 -51 l5 -45 -15 32 c-8 18 -27 40 -42 50 -16 9
-30 19 -33 21 -2 1 2 7 10 13 11 7 -3 9 -46 8 -33 -1 -65 1 -71 4 -16 10 -43
-3 -43 -21 0 -8 -3 -12 -7 -9 -3 4 -17 -3 -30 -15 -23 -21 -28 -17 -24 20 1 6
-5 12 -14 12 -8 0 -15 -6 -15 -14 0 -8 -4 -17 -9 -20 -12 -8 -8 33 4 42 6 4
10 14 10 22 0 18 45 41 96 47 39 6 50 17 27 26 -8 3 -6 6 4 6 10 1 31 15 48
31 33 32 83 40 120 20z m-285 -28 c-7 -8 -35 7 -35 18 0 6 7 6 20 -2 10 -7 17
-14 15 -16z m-34 -42 c-8 -4 -21 -5 -30 -2 -12 5 -10 8 9 12 29 8 40 3 21 -10z
m1150 -10 c29 -16 24 -55 -13 -83 -50 -39 -69 -7 -43 73 7 22 26 25 56 10z
m-1160 -106 c4 -22 5 -42 2 -46 -2 -5 2 -8 9 -9 7 0 1 -5 -13 -10 -22 -8 -28
-18 -31 -49 -4 -43 6 -80 25 -92 9 -6 9 -8 0 -8 -7 0 -13 -7 -13 -16 0 -8 5
-12 10 -9 6 4 10 -10 10 -34 0 -31 4 -41 16 -41 10 0 14 -6 10 -15 -3 -9 0
-15 8 -15 8 0 39 -9 69 -21 46 -18 54 -24 49 -41 -3 -11 -13 -23 -23 -25 -11
-3 -16 -9 -14 -13 6 -9 -42 2 -85 20 -32 13 -68 65 -76 110 -4 19 -20 50 -35
67 -15 18 -31 47 -34 65 -7 37 8 88 26 88 6 0 9 7 5 15 -3 8 4 41 16 74 19 52
24 58 42 51 14 -5 23 -19 27 -46z m259 16 c0 -13 -11 -13 -30 0 -12 8 -11 10
8 10 12 0 22 -4 22 -10z m214 -16 c8 -21 8 -24 -3 -24 -5 0 -11 9 -14 20 -6
24 8 27 17 4z m-339 -14 c-16 -10 -37 -29 -46 -42 -10 -12 -21 -19 -25 -15
-10 9 64 77 84 77 12 0 7 -6 -13 -20z m905 4 c0 -8 -4 -12 -10 -9 -5 3 -10 -3
-10 -14 0 -19 -10 -26 -32 -22 -5 0 -8 -6 -8 -14 0 -13 4 -14 20 -5 17 9 20 8
20 -10 0 -11 -4 -20 -9 -20 -5 0 -16 -2 -23 -5 -18 -7 -41 41 -30 61 6 12 38
32 80 53 1 0 2 -6 2 -15z m222 -24 c-9 -14 -9 -20 -1 -20 7 0 9 -11 5 -32 -4
-18 -7 -40 -7 -50 0 -9 -9 -24 -20 -34 -10 -9 -19 -25 -19 -35 0 -11 -12 -20
-37 -27 -27 -7 -31 -10 -15 -11 22 -1 22 -2 7 -17 -9 -9 -35 -19 -58 -21 -38
-5 -43 -3 -43 16 0 16 7 21 26 22 25 0 25 0 3 9 -16 7 -21 14 -16 27 4 10 8
12 11 5 2 -7 8 -12 13 -12 4 0 6 7 3 15 -4 10 0 15 14 15 31 0 53 11 45 23 -4
6 0 8 10 4 10 -3 17 -2 17 3 0 6 -6 10 -12 10 -7 0 -1 10 15 21 15 11 27 25
27 31 0 5 -7 2 -16 -7 -28 -28 -72 -46 -77 -32 -3 7 -17 -1 -36 -23 -26 -29
-31 -31 -26 -12 4 12 4 22 1 22 -3 0 -9 -15 -14 -32 l-9 -33 -11 35 -10 35 -1
-37 c-1 -20 -8 -44 -17 -52 -28 -29 -48 -17 -33 21 7 18 6 23 -4 17 -6 -3 0 5
15 19 14 15 29 35 33 46 5 17 85 81 101 81 2 0 21 8 42 17 79 36 119 33 94 -7z
m-1082 -6 c-11 -19 -18 -39 -16 -43 3 -5 -1 -17 -9 -27 -8 -10 -15 -14 -15 -7
0 6 -9 9 -20 6 -18 -5 -19 -3 -9 26 10 30 61 81 80 81 5 0 0 -16 -11 -36z
m104 6 c6 -6 7 -10 2 -10 -4 0 0 -7 9 -16 25 -25 10 -29 -23 -5 -17 12 -42 21
-57 21 -22 0 -25 3 -16 14 12 15 69 12 85 -4z m270 -67 c7 -54 -2 -101 -26
-132 -10 -13 -18 -29 -18 -36 0 -7 -6 -18 -14 -25 -8 -6 -12 -18 -9 -26 3 -8
0 -21 -7 -29 -10 -12 -10 -15 1 -16 11 0 10 -2 -1 -6 -8 -3 -36 -26 -62 -51
-34 -33 -48 -41 -48 -29 0 23 -5 22 -47 -10 -26 -20 -49 -28 -88 -30 -47 -2
-53 0 -63 22 -7 14 -8 25 -3 25 5 0 18 17 28 37 15 28 28 40 54 46 19 4 39 9
44 10 6 1 21 10 35 20 30 21 40 21 40 3 0 -20 -29 -48 -42 -40 -7 4 -8 2 -4
-4 18 -29 72 32 61 68 -4 12 -2 20 4 20 6 0 10 6 9 13 -2 6 5 11 15 11 9 -1
17 2 17 6 0 5 9 11 19 15 13 4 18 12 14 21 -4 10 2 17 15 21 38 9 49 76 19
106 -14 14 -17 22 -9 25 7 2 12 12 12 21 0 57 45 11 54 -56z m281 47 c2 0 2 7
-1 15 -7 17 9 19 36 5 26 -14 52 -69 41 -88 -7 -13 -11 -11 -21 9 -13 24 -33
41 -46 39 -4 -1 -10 4 -14 11 -5 7 -16 9 -25 5 -17 -6 -17 -8 1 -28 19 -21 19
-21 -3 -7 -26 16 -41 6 -23 -16 7 -8 9 -22 6 -31 -5 -13 -9 -14 -21 -4 -8 7
-15 18 -15 24 -1 45 -48 39 -100 -14 -49 -50 -76 -32 -50 34 11 30 76 66 122
67 18 0 42 4 53 8 14 6 25 3 38 -10 10 -11 20 -19 22 -19z m235 31 c0 -6 -4
-13 -10 -16 -5 -3 -10 1 -10 9 0 9 5 16 10 16 6 0 10 -4 10 -9z m-843 -37 c-3
-3 -12 -4 -19 -1 -8 3 -5 6 6 6 11 1 17 -2 13 -5z m-177 -8 c0 -3 -4 -8 -10
-11 -5 -3 -10 -1 -10 4 0 6 5 11 10 11 6 0 10 -2 10 -4z m-44 -53 c-10 -10
-19 5 -10 18 6 11 8 11 12 0 2 -7 1 -15 -2 -18z m73 -49 c1 -33 9 -50 42 -88
22 -25 35 -46 29 -46 -6 0 -26 16 -43 35 -28 32 -57 49 -42 25 3 -6 -4 -10
-16 -10 -12 0 -20 3 -16 6 3 4 0 18 -7 33 -7 14 -12 37 -11 51 2 14 4 30 4 37
1 6 10 9 21 6 15 -4 20 0 21 13 1 37 18 -18 18 -62z m197 51 c-3 -8 0 -15 7
-18 6 -2 4 -6 -6 -10 -14 -5 -17 0 -17 24 0 19 4 28 11 24 6 -4 8 -13 5 -20z
m63 -7 c12 -39 12 -126 -1 -134 -4 -3 -6 -10 -3 -15 4 -5 -2 -9 -11 -9 -10 0
-14 -3 -11 -7 20 -19 -133 -56 -189 -45 -40 7 -27 19 19 16 49 -4 80 4 72 17
-4 5 -16 10 -28 10 -12 1 -1 6 24 11 48 10 65 28 74 77 2 14 8 27 12 30 19 14
30 48 21 64 -6 11 -5 17 1 17 5 0 14 -15 20 -32z m404 -18 c16 -18 22 -32 16
-36 -6 -3 -16 -1 -22 5 -16 16 -27 14 -21 -4 7 -16 -40 -39 -63 -31 -24 10
-13 33 18 40 19 3 28 10 23 17 -4 8 -9 7 -15 -2 -7 -11 -9 -11 -9 2 0 18 19
39 35 39 7 0 24 -13 38 -30z m-599 5 c11 -8 38 -15 60 -16 37 0 39 -1 16 -10
-29 -12 -68 -4 -92 18 -14 12 -18 13 -18 3 0 -7 -3 -11 -6 -7 -7 7 4 27 14 27
4 0 16 -7 26 -15z m41 -48 l30 0 -30 -13 c-26 -11 -27 -13 -12 -19 10 -4 36
-5 57 -2 58 8 48 -22 -12 -37 -34 -8 -66 4 -100 39 -36 36 -35 45 5 37 17 -3
46 -6 62 -5z m75 9 c0 -3 -4 -8 -10 -11 -5 -3 -10 -1 -10 4 0 6 5 11 10 11 6
0 10 -2 10 -4z m650 -64 l24 -22 -35 0 c-19 0 -49 -9 -66 -20 -23 -13 -33 -16
-34 -7 0 7 -3 6 -6 -3 -9 -21 -30 -40 -36 -33 -4 3 -18 -2 -31 -11 -24 -15
-26 -15 -36 4 -13 23 -36 26 -56 6 -14 -14 -9 -45 8 -57 5 -3 -2 -17 -14 -31
-13 -14 -24 -32 -26 -39 -2 -8 -10 -20 -19 -26 -11 -9 -12 -13 -4 -13 8 0 10
-7 6 -20 -4 -12 -2 -20 5 -20 7 0 7 -7 -2 -22 -7 -13 -11 -29 -10 -35 2 -7 -1
-13 -6 -13 -18 0 -34 30 -29 51 3 12 -1 35 -9 51 -11 20 -12 33 -4 47 5 11 10
29 10 40 0 11 10 25 21 32 17 8 19 13 9 19 -11 7 -8 16 13 43 30 39 82 67 125
67 17 0 34 5 38 12 4 7 3 8 -4 4 -11 -7 -17 5 -8 15 2 2 38 4 79 3 62 0 78 -4
97 -22z m-280 14 c0 -3 -4 -8 -10 -11 -5 -3 -10 -1 -10 4 0 6 5 11 10 11 6 0
10 -2 10 -4z m419 -56 c5 0 9 -11 9 -25 0 -30 -34 -35 -54 -7 -11 14 -9 20 9
38 16 15 23 17 25 7 2 -7 7 -13 11 -13z m-109 -15 c15 -14 17 -20 8 -26 -10
-6 -8 -12 7 -23 11 -9 25 -16 31 -16 16 0 26 -28 19 -54 -4 -12 -3 -16 2 -11
13 16 33 16 33 0 0 -8 6 -15 13 -15 9 0 8 -3 -2 -9 -7 -5 -11 -14 -7 -20 9
-15 -11 -51 -29 -51 -8 0 -15 -4 -15 -10 0 -5 8 -10 18 -10 10 0 23 -5 29 -11
15 -15 -1 -80 -24 -96 -10 -7 -24 -17 -30 -23 -7 -6 -13 -9 -13 -8 1 2 7 26
14 53 12 43 11 55 -2 88 -14 35 -13 39 4 52 17 13 18 14 2 15 -17 0 -22 15
-19 65 0 11 -2 14 -5 7 -4 -8 -10 -10 -17 -3 -8 6 -17 4 -27 -7 -13 -14 -12
-15 3 -9 9 3 17 2 17 -3 0 -5 -11 -9 -25 -8 -19 2 -24 7 -19 18 17 42 16 53
-7 71 l-24 19 30 0 c26 1 27 3 10 10 -11 5 -29 11 -40 15 -14 4 -16 8 -7 14
20 12 49 6 72 -14z m245 -40 c1 -5 7 -21 14 -33 16 -31 8 -38 -26 -23 -22 10
-24 14 -12 22 11 7 9 9 -8 9 -27 0 -40 19 -22 31 18 11 54 7 54 -6z m-317 -36
c23 -28 23 -29 4 -29 -29 0 -53 11 -47 20 3 5 -6 7 -20 4 -23 -4 -24 -3 -14
15 17 27 50 23 77 -10z m-112 2 c-3 -4 -21 -32 -41 -60 -34 -51 -45 -94 -26
-105 12 -8 34 20 27 33 -7 10 25 71 37 71 4 0 7 -9 7 -19 0 -11 5 -23 11 -27
8 -5 6 -10 -5 -16 -9 -5 -16 -16 -16 -23 0 -8 -4 -15 -9 -15 -14 0 0 -41 15
-47 17 -6 18 -50 2 -56 -9 -3 -6 -7 6 -13 13 -5 21 -3 24 4 2 7 12 12 23 12
10 0 19 6 19 14 0 7 9 24 19 38 11 13 23 37 26 51 4 15 11 27 16 27 12 0 11
-42 0 -73 -11 -27 -76 -97 -91 -97 -48 0 -133 75 -153 134 -14 41 -14 46 4 76
28 46 90 110 101 104 4 -3 6 -9 4 -13z m406 -43 c7 -7 27 -15 43 -17 58 -6 83
-35 53 -58 -20 -16 -52 -12 -66 9 -8 11 -21 17 -30 14 -10 -3 -24 -1 -32 4
-13 8 -12 10 3 10 30 0 10 17 -28 24 -20 4 -33 11 -30 17 9 13 71 11 87 -3z
m-337 -16 c-11 -11 -55 -13 -55 -2 0 6 4 9 9 5 5 -3 12 -1 16 4 3 6 12 8 21 4
8 -3 12 -8 9 -11z m41 0 c8 -5 6 -13 -6 -25 -17 -18 -18 -17 -16 7 1 28 4 30
22 18z m-401 -31 c-3 -11 3 -36 15 -58 11 -21 20 -46 20 -55 0 -10 5 -18 10
-18 6 0 10 -6 10 -14 0 -9 -8 -12 -25 -8 -36 6 -31 -4 10 -24 30 -14 35 -21
35 -50 0 -24 5 -34 16 -34 8 0 13 -4 10 -9 -4 -5 4 -7 16 -3 14 3 19 2 14 -7
-4 -6 2 -15 16 -21 20 -9 19 -10 -9 -6 -18 3 -33 2 -33 -3 0 -13 -49 0 -91 23
-21 12 -52 39 -69 61 -29 36 -30 42 -24 99 4 37 14 66 23 74 9 8 10 11 4 7 -7
-3 -13 -1 -13 5 0 6 9 14 21 18 11 5 20 11 20 15 -3 21 1 27 15 27 11 0 13 -6
9 -19z m485 1 c0 -10 -8 -34 -19 -55 l-18 -36 -6 41 c-4 32 -2 45 11 55 23 17
32 16 32 -5z m149 -8 c6 4 11 3 11 -2 0 -5 6 -9 13 -9 6 0 21 -4 31 -9 14 -5
17 -4 12 4 -4 7 -3 12 3 12 13 0 9 -52 -4 -62 -6 -5 -4 -12 5 -18 9 -6 11 -10
3 -10 -7 0 -18 10 -24 22 -17 31 -32 45 -55 50 -10 2 -20 12 -22 23 -2 15 -1
17 6 6 6 -7 15 -10 21 -7z m-1079 -9 c6 -4 10 -14 8 -23 -1 -10 3 -27 10 -39
11 -20 10 -22 -20 -25 -46 -4 -124 30 -138 60 -8 19 -8 27 2 33 14 9 122 4
138 -6z m838 -36 c-3 -8 -7 -3 -11 10 -4 17 -3 21 5 13 5 -5 8 -16 6 -23z
m-788 1 c0 -5 -7 -7 -15 -4 -8 4 -12 10 -9 15 6 11 24 2 24 -11z m59 -70 c0
-8 -6 -4 -13 10 -8 14 -12 29 -8 34 6 10 20 -20 21 -44z m681 40 c0 -5 -8 -10
-18 -10 -10 0 -23 -5 -30 -12 -8 -8 -12 -9 -12 -1 0 9 21 21 58 32 1 1 2 -3 2
-9z m160 -51 c0 -48 -38 -104 -76 -112 -19 -3 -24 -1 -20 9 21 50 21 50 3 35
-12 -9 -17 -10 -17 -2 0 6 6 14 14 17 8 3 17 16 20 30 4 13 11 24 16 24 6 0
10 7 10 16 0 10 6 14 15 10 8 -3 15 -1 15 4 0 6 5 10 10 10 6 0 10 -18 10 -41z
m160 31 c8 -5 11 -10 5 -10 -5 0 -17 5 -25 10 -8 5 -10 10 -5 10 6 0 17 -5 25
-10z m-509 -23 c-10 -9 -11 -8 -5 6 3 10 9 15 12 12 3 -3 0 -11 -7 -18z m-571
-6 c0 -5 -14 -14 -31 -20 -38 -13 -39 -13 -39 -2 0 4 15 13 33 19 17 5 33 10
35 11 1 1 2 -3 2 -8z m40 -27 c9 -27 9 -38 1 -43 -8 -5 -5 -13 9 -26 11 -10
20 -26 20 -37 0 -15 -7 -12 -34 16 -37 38 -52 84 -30 93 7 2 10 11 7 19 -3 8
-1 14 5 14 6 0 16 -16 22 -36z m221 10 c2 2 3 -12 2 -32 -1 -20 -2 -44 -2 -53
-1 -8 -7 -24 -15 -35 -13 -17 -13 -14 -3 23 9 34 8 49 -6 83 -16 41 -16 42 2
26 10 -9 20 -14 22 -12z m492 20 c3 -3 3 -13 0 -21 -5 -12 -7 -12 -14 -1 -15
23 -4 40 14 22z m367 -31 c0 -22 -2 -25 -10 -13 -13 20 -13 40 0 40 6 0 10
-12 10 -27z m-500 -23 c17 -21 47 -44 67 -51 27 -9 34 -15 30 -30 -3 -10 -1
-19 4 -19 5 0 9 4 9 10 0 5 14 8 30 7 19 -1 28 -6 25 -14 -6 -18 2 -16 41 8
42 25 44 12 5 -25 -17 -17 -47 -32 -71 -36 -34 -6 -50 -3 -102 23 -76 36 -94
53 -102 94 -7 29 9 73 25 73 4 0 21 -18 39 -40z m-410 3 c0 -8 -6 -27 -14 -41
-8 -15 -19 -38 -24 -52 -9 -22 -11 -17 -11 32 -1 39 4 61 15 72 17 18 34 13
34 -11z m931 -14 c21 0 22 -1 5 -8 -18 -7 -18 -8 -2 -14 10 -4 23 -4 29 -1 7
3 3 -1 -7 -10 -17 -14 -22 -13 -49 6 -17 12 -40 22 -51 23 -20 0 -36 25 -16
25 6 0 8 -4 5 -10 -3 -5 1 -10 9 -10 9 0 16 7 16 17 0 15 1 15 18 0 10 -10 29
-17 43 -18z m9 21 c0 -5 -2 -10 -4 -10 -3 0 -8 5 -11 10 -3 6 -1 10 4 10 6 0
11 -4 11 -10z m-1165 -29 c3 -5 0 -13 -6 -17 -8 -4 -7 -9 2 -15 12 -7 12 -9 0
-9 -16 0 -51 28 -51 42 0 11 47 10 55 -1z m221 -46 c-16 -44 -25 -54 -18 -18
4 24 19 53 27 53 1 0 -3 -16 -9 -35z m882 5 c5 0 12 -7 16 -15 3 -8 17 -15 32
-15 16 0 24 -5 21 -12 -5 -16 -49 -18 -59 -4 -4 6 -40 10 -81 11 -81 0 -97 18
-28 29 21 3 44 13 52 22 12 14 14 14 25 0 6 -9 16 -16 22 -16z m32 10 c8 -5
12 -11 10 -14 -3 -2 -14 2 -24 10 -22 15 -10 19 14 4z m50 -20 c0 -5 -4 -10
-10 -10 -5 0 -10 5 -10 10 0 6 5 10 10 10 6 0 10 -4 10 -10z m-245 -113 c-33
-70 -87 -98 -173 -89 -44 4 -60 11 -93 42 -44 41 -38 52 19 39 19 -4 32 -3 32
3 0 5 5 6 11 3 6 -4 25 -7 44 -7 25 0 43 9 70 36 19 20 42 36 49 36 8 0 17 8
21 17 5 15 9 12 21 -14 14 -28 14 -35 -1 -66z m-755 44 c0 -11 -4 -23 -10 -26
-6 -4 -10 5 -10 19 0 14 5 26 10 26 6 0 10 -9 10 -19z m-188 -17 c35 -11 48
-22 53 -41 4 -17 1 -29 -7 -34 -9 -6 -15 -2 -18 12 -3 11 -7 19 -10 17 -3 -2
-19 7 -37 20 -17 12 -38 22 -47 22 -9 0 -16 5 -16 10 0 14 30 12 82 -6z m413
6 c4 -6 1 -9 -6 -8 -6 2 -14 -3 -17 -11 -4 -11 3 -13 29 -8 l34 6 -35 -19 -35
-19 52 2 c28 1 55 -1 59 -5 13 -14 -18 -38 -57 -44 -21 -4 -40 -13 -43 -20 -4
-12 -2 -12 15 -3 11 6 27 8 35 5 9 -3 32 5 51 19 29 19 40 22 51 13 15 -13 -2
-22 -125 -71 -59 -24 -61 -24 -66 -6 -3 11 1 25 8 33 17 16 9 27 -13 20 -12
-4 -11 -2 2 7 11 7 36 14 55 16 50 6 54 16 5 11 -31 -2 -40 0 -37 9 4 9 -4 13
-23 12 -17 -1 -22 -3 -11 -6 21 -5 22 -19 3 -26 -17 -7 -40 16 -28 27 4 4 1 6
-7 4 -8 -1 -17 6 -19 16 -3 15 0 17 13 12 12 -4 23 0 32 13 7 11 26 22 41 24
15 2 28 5 29 6 1 0 5 -4 8 -9z m232 4 c-3 -3 -12 -4 -19 -1 -8 3 -5 6 6 6 11
1 17 -2 13 -5z m494 -24 c11 0 19 -7 19 -15 0 -8 11 -17 24 -21 15 -3 26 -15
29 -30 3 -19 1 -22 -8 -14 -8 7 -15 7 -19 1 -3 -5 -2 -11 3 -13 4 -1 12 -13
15 -25 9 -27 -4 -29 -42 -9 -15 8 -36 17 -47 21 -15 5 -17 8 -6 15 11 6 8 9
-9 12 -13 1 -26 10 -28 18 -4 12 -2 13 9 4 8 -7 30 -15 49 -19 l35 -7 -27 21
c-14 11 -33 21 -42 21 -9 0 -19 8 -23 18 -3 9 -13 25 -21 35 -15 16 -13 17 28
2 23 -8 51 -15 61 -15z m-1200 -17 c44 -47 58 -69 38 -59 -8 5 1 -4 19 -19 43
-36 41 -49 -5 -23 -55 31 -73 49 -89 87 -27 63 -13 68 37 14z m284 8 c-3 -6
-11 -11 -17 -11 -6 0 -6 6 2 15 14 17 26 13 15 -4z m305 -6 c0 -8 -4 -15 -10
-15 -5 0 -10 7 -10 15 0 8 5 15 10 15 6 0 10 -7 10 -15z m530 -121 c0 -22 12
-44 21 -39 4 3 4 17 -1 31 -14 36 -13 39 11 18 14 -12 22 -15 27 -7 5 8 17 7
42 -4 19 -9 38 -16 41 -15 12 2 4 -58 -7 -62 -7 -3 -10 2 -7 12 5 21 -41 67
-57 57 -8 -5 -6 -14 8 -29 21 -23 44 -81 35 -89 -7 -8 -35 3 -56 22 -16 13
-19 13 -27 1 -8 -13 -10 -12 -10 3 0 9 -5 16 -12 15 -6 -2 -17 8 -25 22 -7 14
-13 19 -13 12 0 -10 -3 -10 -14 0 -8 7 -12 16 -10 20 2 3 -2 12 -9 20 -29 29
-30 118 -1 118 8 0 11 7 8 18 -3 9 9 -12 25 -47 17 -35 31 -69 31 -77z m-872
74 c-6 -18 -13 -27 -15 -21 -4 11 13 53 22 53 2 0 -1 -15 -7 -32z m-134 -34
c3 -8 2 -12 -4 -9 -6 3 -10 10 -10 16 0 14 7 11 14 -7z m206 7 c0 -5 -7 -12
-16 -15 -14 -5 -15 -4 -4 9 14 17 20 19 20 6z m-105 -57 c-8 -16 -15 -36 -16
-44 0 -9 -3 -10 -5 -3 -6 13 24 89 31 81 3 -3 -1 -18 -10 -34z m125 2 c0 -13
-6 -26 -14 -29 -11 -5 -12 0 -3 24 14 35 17 36 17 5z m570 -1 c17 -9 33 -15
37 -15 5 1 9 -8 11 -19 2 -10 12 -21 23 -24 30 -8 22 -27 -11 -27 -16 0 -30 4
-30 9 0 5 -13 11 -29 14 -16 3 -35 12 -42 19 -8 7 -25 19 -39 26 -24 12 -24
12 7 6 27 -5 32 -3 27 10 -8 20 9 20 46 1z m-815 -45 c-3 -5 -12 -10 -18 -10
-7 0 -6 4 3 10 19 12 23 12 15 0z m-38 -6 c-3 -3 -12 -4 -19 -1 -8 3 -5 6 6 6
11 1 17 -2 13 -5z m3 -34 c-6 -11 -15 -20 -21 -20 -6 0 -7 -4 -4 -10 3 -5 0
-10 -9 -10 -8 0 -20 -2 -28 -3 -7 -2 -10 -2 -5 0 4 3 7 11 7 19 0 9 5 12 10 9
6 -3 10 -2 10 3 0 7 31 27 48 31 1 1 -2 -8 -8 -19z m45 -16 c-21 -16 -45 -18
-45 -6 0 14 10 20 37 20 25 0 26 -1 8 -14z m-153 -58 c7 4 8 2 4 -4 -11 -18
-26 -14 -25 6 0 10 3 12 6 4 2 -6 10 -9 15 -6z"/>
<path d="M5490 8671 c0 -12 28 -22 35 -12 3 5 -2 12 -11 15 -21 8 -24 8 -24
-3z"/>
<path d="M5420 8640 c0 -5 5 -10 11 -10 5 0 7 5 4 10 -3 6 -8 10 -11 10 -2 0
-4 -4 -4 -10z"/>
<path d="M4875 13965 c-229 -36 -469 -134 -636 -259 -105 -80 -242 -222 -311
-323 -97 -144 -180 -355 -215 -546 -25 -134 -25 -575 0 -742 50 -337 133 -598
286 -905 225 -449 514 -774 836 -941 35 -19 67 -31 70 -27 25 25 32 186 14
332 -19 158 -86 318 -175 415 l-33 37 69 62 c75 68 159 181 209 279 25 50 75
176 108 273 2 8 22 -33 43 -93 76 -211 163 -353 286 -466 35 -32 64 -62 64
-65 0 -4 -15 -26 -34 -49 -122 -151 -175 -350 -163 -609 4 -72 9 -133 11 -135
8 -8 182 95 264 156 212 159 463 484 630 817 275 550 386 1156 302 1649 -65
381 -250 683 -546 894 -158 112 -322 184 -534 232 -115 26 -418 34 -545 14z
m498 -120 c183 -38 394 -127 510 -214 34 -25 101 -83 149 -129 297 -286 429
-727 373 -1252 -43 -406 -172 -790 -401 -1186 -111 -192 -224 -345 -363 -487
-73 -75 -222 -197 -241 -197 -15 0 -4 117 19 212 36 151 115 278 235 377 36
30 66 57 66 60 0 3 -29 22 -63 41 -34 19 -94 67 -134 107 -178 176 -298 451
-383 878 -12 61 -25 114 -28 119 -3 5 -31 -94 -62 -220 -80 -319 -143 -478
-259 -651 -67 -100 -148 -181 -240 -240 -61 -38 -74 -53 -46 -53 22 0 182
-157 212 -207 31 -53 61 -131 79 -203 18 -72 30 -220 18 -220 -25 0 -206 144
-280 222 -103 109 -245 303 -339 462 -73 125 -185 357 -229 479 -46 122 -110
373 -139 537 -29 169 -32 583 -5 727 37 191 113 383 210 525 56 83 185 217
270 279 167 124 405 216 653 253 66 10 343 -3 418 -19z"/>
<path d="M4708 9655 c-7 -7 11 -55 21 -55 11 0 33 42 26 48 -4 4 -12 -2 -18
-13 -11 -19 -11 -19 -17 3 -3 13 -8 21 -12 17z"/>
<path d="M5512 9637 c-8 -9 -8 -17 0 -27 8 -13 9 -12 5 1 -3 9 0 22 6 28 6 6
8 11 5 11 -3 0 -10 -6 -16 -13z"/>
<path d="M4470 9591 c0 -5 7 -11 15 -15 8 -3 15 -1 15 3 0 5 -7 11 -15 15 -8
3 -15 1 -15 -3z"/>
<path d="M4440 9559 c17 -16 33 -23 49 -20 15 2 29 -3 37 -14 7 -9 17 -14 23
-10 21 12 11 21 -41 37 -29 9 -62 20 -73 24 -17 6 -16 3 5 -17z"/>
<path d="M4700 9395 c7 -8 16 -15 21 -15 5 0 6 7 3 15 -4 8 -13 15 -21 15 -13
0 -13 -3 -3 -15z"/>
<path d="M5496 9155 c-3 -8 -1 -15 4 -15 6 0 10 7 10 15 0 8 -2 15 -4 15 -2 0
-6 -7 -10 -15z"/>
<path d="M5150 8860 c0 -5 5 -10 11 -10 5 0 7 5 4 10 -3 6 -8 10 -11 10 -2 0
-4 -4 -4 -10z"/>
<path d="M4800 8573 c0 -5 9 -14 20 -21 11 -7 20 -8 20 -2 0 5 -9 14 -20 20
-11 6 -20 7 -20 3z"/>
<path d="M5307 8509 c-9 -6 -21 -8 -25 -5 -4 2 -14 0 -22 -5 -13 -8 -12 -12 4
-24 10 -8 23 -12 27 -9 17 10 9 -9 -8 -22 -17 -13 -17 -13 2 -14 11 -1 28 -3
38 -5 10 -2 17 3 17 12 0 10 6 12 21 8 19 -6 20 -5 9 14 -6 12 -15 19 -21 16
-5 -4 -9 -2 -9 4 0 5 5 13 10 16 6 3 10 11 10 17 0 7 -5 7 -14 -1 -9 -7 -15
-8 -18 -2 -2 6 -9 6 -21 0z m18 -49 c3 -5 1 -10 -4 -10 -6 0 -11 5 -11 10 0 6
2 10 4 10 3 0 8 -4 11 -10z"/>
<path d="M5175 8280 c-3 -5 -2 -10 4 -10 5 0 13 5 16 10 3 6 2 10 -4 10 -5 0
-13 -4 -16 -10z"/>
<path d="M5118 8193 c7 -3 16 -2 19 1 4 3 -2 6 -13 5 -11 0 -14 -3 -6 -6z"/>
<path d="M4840 7875 c13 -14 26 -23 28 -20 7 7 -29 45 -41 45 -6 0 0 -11 13
-25z"/>
<path d="M4962 7261 c4 -13 18 -16 19 -4 0 4 -5 9 -11 12 -7 2 -11 -2 -8 -8z"/>
<path d="M5060 7465 c0 -8 4 -15 10 -15 5 0 7 7 4 15 -4 8 -8 15 -10 15 -2 0
-4 -7 -4 -15z"/>
<path d="M5095 7440 c3 -5 11 -10 16 -10 6 0 7 5 4 10 -3 6 -11 10 -16 10 -6
0 -7 -4 -4 -10z"/>
<path d="M5302 7448 c-15 -15 -16 -31 0 -26 6 2 12 12 14 21 3 20 2 21 -14 5z"/>
<path d="M4811 7224 c0 -11 3 -14 6 -6 3 7 2 16 -1 19 -3 4 -6 -2 -5 -13z"/>
<path d="M5104 7009 c-13 -22 -44 -32 -44 -14 0 23 -9 18 -55 -29 -39 -41 -67
-108 -51 -123 10 -11 38 28 31 44 -3 10 -3 14 1 10 4 -4 14 -1 22 6 13 9 14 9
8 0 -11 -20 1 -15 26 10 13 12 37 33 55 47 24 19 30 30 24 45 -7 16 -9 17 -17
4z"/>
<path d="M5255 6900 c-16 -17 -16 -20 -3 -15 9 4 19 13 22 21 7 19 2 18 -19
-6z"/>
<path d="M5476 6791 c-3 -5 1 -11 9 -14 9 -4 12 -1 8 9 -6 16 -10 17 -17 5z"/>
<path d="M4960 5950 c-8 -5 -11 -12 -7 -16 4 -4 13 -2 19 4 15 15 7 24 -12 12z"/>
<path d="M4560 6341 c0 -5 5 -13 10 -16 6 -3 10 -2 10 4 0 5 -4 13 -10 16 -5
3 -10 2 -10 -4z"/>
<path d="M4540 6006 c0 -2 11 -11 25 -20 28 -19 33 -15 9 8 -14 15 -34 22 -34
12z"/>
<path d="M5355 5990 c-3 -5 -1 -10 4 -10 6 0 11 5 11 10 0 6 -2 10 -4 10 -3 0
-8 -4 -11 -10z"/>
<path d="M4742 5476 c-17 -37 -15 -45 4 -18 8 12 14 27 12 33 -2 6 -9 -1 -16
-15z"/>
<path d="M4807 5353 c-4 -3 -7 -11 -7 -17 0 -6 5 -5 12 2 6 6 9 14 7 17 -3 3
-9 2 -12 -2z"/>
<path d="M5030 5440 c0 -5 5 -10 10 -10 6 0 10 5 10 10 0 6 -4 10 -10 10 -5 0
-10 -4 -10 -10z"/>
<path d="M5000 5421 c0 -11 4 -22 9 -25 5 -3 8 5 7 19 -1 29 -16 34 -16 6z"/>
<path d="M5000 4929 c0 -5 9 -9 20 -9 11 0 20 2 20 4 0 2 -9 6 -20 9 -11 3
-20 1 -20 -4z"/>
<path d="M5097 4894 c-10 -13 -14 -24 -10 -24 9 0 36 40 31 45 -2 2 -11 -8
-21 -21z"/>
<path d="M5021 4894 c0 -11 3 -14 6 -6 3 7 2 16 -1 19 -3 4 -6 -2 -5 -13z"/>
<path d="M5680 5090 c0 -6 7 -10 15 -10 8 0 15 2 15 4 0 2 -7 6 -15 10 -8 3
-15 1 -15 -4z"/>
<path d="M5525 4940 c-3 -5 -1 -10 4 -10 6 0 11 5 11 10 0 6 -2 10 -4 10 -3 0
-8 -4 -11 -10z"/>
<path d="M4723 4895 c-18 -20 -16 -38 3 -31 9 3 22 6 30 6 9 0 12 5 9 10 -3 6
5 10 19 10 43 0 37 16 -7 17 -25 1 -47 -4 -54 -12z"/>
<path d="M4608 4803 c7 -3 16 -2 19 1 4 3 -2 6 -13 5 -11 0 -14 -3 -6 -6z"/>
<path d="M4830 4799 c0 -5 5 -7 10 -4 6 3 10 8 10 11 0 2 -4 4 -10 4 -5 0 -10
-5 -10 -11z"/>
<path d="M5746 4714 c-5 -14 -4 -15 9 -4 17 14 19 20 6 20 -5 0 -12 -7 -15
-16z"/>
<path d="M5620 4650 c0 -5 5 -10 11 -10 5 0 7 5 4 10 -3 6 -8 10 -11 10 -2 0
-4 -4 -4 -10z"/>
<path d="M5530 4560 c0 -5 5 -10 11 -10 5 0 7 5 4 10 -3 6 -8 10 -11 10 -2 0
-4 -4 -4 -10z"/>
<path d="M5020 4540 c0 -5 5 -10 10 -10 6 0 10 5 10 10 0 6 -4 10 -10 10 -5 0
-10 -4 -10 -10z"/>
<path d="M4825 4370 c3 -5 8 -10 11 -10 2 0 4 5 4 10 0 6 -5 10 -11 10 -5 0
-7 -4 -4 -10z"/>
<path d="M4965 4260 c-3 -5 1 -10 9 -10 9 0 16 5 16 10 0 6 -4 10 -9 10 -6 0
-13 -4 -16 -10z"/>
<path d="M4968 4183 c7 -3 16 -2 19 1 4 3 -2 6 -13 5 -11 0 -14 -3 -6 -6z"/>
<path d="M4530 4220 c0 -5 7 -10 15 -10 8 0 15 5 15 10 0 6 -7 10 -15 10 -8 0
-15 -4 -15 -10z"/>
<path d="M5271 4014 c-1 -14 6 -24 21 -27 26 -7 38 -1 38 18 0 11 -6 12 -24 5
-20 -7 -26 -6 -29 8 -4 13 -5 12 -6 -4z"/>
<path d="M5650 3930 c0 -5 5 -10 10 -10 6 0 10 5 10 10 0 6 -4 10 -10 10 -5 0
-10 -4 -10 -10z"/>
<path d="M5566 3858 c-3 -17 -2 -36 4 -42 7 -7 10 4 10 32 0 50 -5 54 -14 10z"/>
<path d="M5591 3804 c0 -11 3 -14 6 -6 3 7 2 16 -1 19 -3 4 -6 -2 -5 -13z"/>
<path d="M5654 3775 c-9 -22 1 -29 15 -11 8 10 9 16 1 21 -5 3 -13 -1 -16 -10z"/>
</g>
</svg>
